<svg id="Lag_1" data-name="Lag 1" xmlns="http://www.w3.org/2000/svg" width="565" height="730" viewBox="0 0 565 730"><defs><style>.cls-1{fill:#282657;}.cls-2{fill:#28266e;}.cls-3{fill:#fff;}.cls-4{fill:#005aab;}.cls-5{fill:#ffeed3;}.cls-6{fill:#ffe7c9;}.cls-7{fill:#d8a893;stroke:#ffe7c9;stroke-miterlimit:10;opacity:0.73;}.cls-8{fill:#c9f6ff;}.cls-9{fill:#aad9cd;}.cls-10{fill:#89adb0;}.cls-11{fill:#6fadb0;}.cls-12{fill:#000021;}.cls-13{fill:#ab0004;}</style></defs><title>Tegnebræt 3</title><path class="cls-1" d="M217.56,445.84,151.39,665.69a52.24,52.24,0,0,0,24.19,27.24A41.73,41.73,0,0,0,196.75,699a40.82,40.82,0,0,0,13.66-2.28Q214,571.28,217.56,445.84Z"/><path class="cls-1" d="M375.77,460.22q5.69,18.66,11.51,37.4,27.86,89.51,57.53,175.48a33.26,33.26,0,0,1-8.63,14.38,32.71,32.71,0,0,1-17.26,8.63l-28.66,4.31Z"/><path class="cls-2" d="M398.79,719.12C365.5,721.47,346.67,722,335.5,722h-46c-11.38,0-35-.53-89.18-2.88-2.63-37-3.89-77.45-2.87-120.82a1279.23,1279.23,0,0,1,11.51-143.83h172.6a1756.27,1756.27,0,0,1,17.26,227.26Q399,700.6,398.79,719.12Z"/><polygon class="cls-3" points="205.7 458.39 295.57 517.76 384.72 460.77 205.7 458.39"/><polygon class="cls-4" points="249.4 469.89 298.1 509.13 344.13 468.85 249.4 469.89"/><path class="cls-5" d="M299.28,474.13c-1.32,0-2.62,0-3.91,0-42.28-.63-87.75-11.25-124.76-29.14-48.06-23.22-81.94-58.54-98-102.12C42.86,262,81.54,180.67,123.71,135.61,184.42,70.74,265.4,63.74,297.4,63.74h2.22c26.78.26,119,7,181.6,82.92,3.37,4.09,82.16,101.42,39.73,204.48-17.49,42.48-50.67,75.08-98.61,96.9C385.92,464.63,341.06,474.13,299.28,474.13Z"/><path class="cls-6" d="M297.4,63.24v1h2.22c26.72.26,118.75,7,181.21,82.74,3.37,4.08,82,101.19,39.66,204a168.16,168.16,0,0,1-40.86,58.87c-15.95,15-35.3,27.66-57.49,37.77-36.37,16.54-81.15,26-122.86,26-1.32,0-2.61,0-3.9,0-42.21-.63-87.61-11.23-124.56-29.09-22.52-10.89-42-24.4-57.88-40.16A168.32,168.32,0,0,1,73.1,342.68C43.41,262,82,180.91,124.07,136,184.65,71.23,265.46,64.24,297.4,64.24v-1m0,0c-24.16,0-110.24,3.84-174.06,72C78.12,183.59,43.41,264.92,72.16,343c36.32,98.68,151.22,130.51,223.2,131.58,1.3,0,2.6,0,3.92,0,71.54,0,183.13-28.58,222.13-123.3,42.18-102.43-34.81-198.92-39.81-205C415.52,66.2,317,63.42,299.63,63.25Z"/><path class="cls-7" d="M72.28,309.2c9.16-6.56,24.42-17.59,43.15-31.65,25.78-19.33,52.84-37,77.67-57.53C217.37,200,227.59,188.89,242,191.25c2.82.46,5.27,1.35,28.76,17.26,26.39,17.87,28.63,20.35,34.52,20.14,9.28-.34,10.55-6.73,34.52-23,13.73-9.33,20.6-14,25.89-14.39,16-1.2,24.45,15.26,51.78,40.28,11.53,10.54,7.17,5,48.91,37.39,13.51,10.49,33.39,26.15,57.53,46l-8.63-72h0V243c0,2.88-138.08-109.31-138.08-106.44s-158.22,0-158.22,0L72.28,228.65Z"/><path class="cls-8" d="M275.81,474.61c9.26,6,13.95,12.4,16.54,17.26,0,0,1.37,2.57,7.19,18.69h0a37.42,37.42,0,0,1,4.32-18.69,38.43,38.43,0,0,1,19.41-17.26Z"/><path class="cls-9" d="M203.17,494.74a116.28,116.28,0,0,1,11.51,2.88s27.59,8.38,80.55,57.53Q298.09,638.58,301,722h23q-1.44-96.37-2.87-192.74-24.27-15.81-48.91-31.64-31.77-20.42-63.28-40.28a77.95,77.95,0,0,0-5.76,37.4Z"/><path class="cls-10" d="M384.72,460.77l2.55,41.33a264.29,264.29,0,0,0-66,35.8l-5.88-11.51-16.19-10.93Z"/><rect class="cls-11" x="197.42" y="558.03" width="198.49" height="54.66" rx="0.5" ry="0.5"/><path class="cls-12" d="M57.9,260.29a256.9,256.9,0,0,1,67-142A226.53,226.53,0,0,1,295.21,47.41a234.08,234.08,0,0,1,172.62,68.64,291.79,291.79,0,0,1,67.79,144.24l14.19,106.44c-4.25-1.32-10.83-2.61-17.26,0-12.4,5-14,20.52-17.26,20.14-8.88-1.05-2.92-119.89-2.87-120.82q-16.93-9.1-34.53-20.14A584.51,584.51,0,0,1,370,158.17a322.63,322.63,0,0,1-34.52,28.77,322.35,322.35,0,0,1-31.64,20.13,187.32,187.32,0,0,1-34.52-20.13c-17.62-13-35.21-31-35.94-30.28,0,0,0,.06,0,.07.45,14.58-132.33,94.93-132.33,94.93-10.76,6.51-19.13,11.88-23,14.39Q80.91,325,83.79,384a40.59,40.59,0,0,0-40.27-17.26Q50.71,313.51,57.9,260.29Z"/><path class="cls-12" d="M40.94,41.38,80.38,17.64c15.48-12.48,35.72-14,49.28-4.53,11.5,8,14.23,21.08,14.85,24.63L156,76.24a34.63,34.63,0,0,1-11.77,47.38l-39.44,23.74a73.71,73.71,0,0,1-20.72-1c-12.32-2.34-24.72-9.65-26.65-10.81a121.91,121.91,0,0,1-32.6-29c-2.72-2.07-13.48-10.74-14.85-24.63C8.29,65.32,20.72,47.84,40.94,41.38Z"/><circle class="cls-13" cx="303.86" cy="258.85" r="14.38"/><ellipse cx="447.69" cy="336.52" rx="23.01" ry="31.64"/><ellipse cx="145.64" cy="339.4" rx="23.01" ry="31.64"/><path class="cls-3" d="M133.62,340.72c-2.28,2-1,6.22,2,6.68,3.14.49,4.94-3.42,3.46-5.91a3.33,3.33,0,0,0-3.85-1.45,2.55,2.55,0,0,0-1.63,3.6,2.49,2.49,0,0,0,3.73.68,2.14,2.14,0,0,0,.38-2.26c-.32-1.36-.68-2.71-1-4.07a1.52,1.52,0,0,0-1.44-1.1,3.67,3.67,0,0,0-3.49,2.64c-.59,1.89.3,3.7,1.24,5.29a1.54,1.54,0,0,0,2.05.54c1.9-.9,3.46-4,1.93-5.88a2.37,2.37,0,0,0-3.07-.16,2.87,2.87,0,0,0-1.19,3.05,1.53,1.53,0,0,0,1.84,1.05c3.51-.63,2.17-6.28-1.12-6.08-3.95.25-4.13,6.92-.18,7.35,4.31.46,6.42-5.55,2.11-7.29-3.87-1.55-6.37,4.15-2.92,6.2A1.5,1.5,0,0,0,134,341c-.44-.27-.12-1.23.56-.66s-.3,1.64-1.06,1.34c0,0-.17-.1-.1-.48s0-.57.26-.86c.09-.11-.26.23,0,.17a.73.73,0,0,1,0,.2c.26-.13.3-.2.11-.2l1.84,1.05q.06.29-.21.27l-1.05-1a1.43,1.43,0,0,1-.81,2l2.05.54c-.32-.53-2-3.4-.34-3.42l-1.45-1.1,1.16,4.65.15-1.16c.8-1.26,1.21.34,1.34.66a1.46,1.46,0,0,1,.14.31c0,.29,0,1-.31,1.15-.74.33-1-1.14-.53-1.56,1.45-1.27-.68-3.39-2.13-2.12Z"/><path class="cls-3" d="M440.47,342.39c-1.44-1.89-5.52-4.11-6.36-.49a3.72,3.72,0,0,0,4.23,4.41,1.47,1.47,0,0,0,1.05-1.05c.3-2.1.52-4.5-1.24-6a3.55,3.55,0,0,0-4.73-.11,1.54,1.54,0,0,0,0,2.12l3.83,4.9c.91,1.17,3-.1,2.51-1.46a6.5,6.5,0,0,0-2.8-3.43c-1.22-.74-2.95.8-2,2.05a8.56,8.56,0,0,0,4.24,3.23c1.74.64,2.37-1.8,1.15-2.74L437,341.24c-1.34-1-2.57.88-2.05,2.06.45,1-1.69,2.53-2.46,1.63s.9-2.76,1.9-2.25l-.3-2.36a5,5,0,0,0,1.91,7.9c1.43.59,2.47-1.53,1.46-2.51a40.2,40.2,0,0,0-4-3.35c-1.56-1.14-3.06,1.47-1.52,2.59a33.59,33.59,0,0,1,3.41,2.89l1.46-2.51a1.94,1.94,0,0,1-.59-2.88,1.52,1.52,0,0,0-.3-2.36c-4-2-8.86,3.56-5.54,7a4.25,4.25,0,0,0,5.46.24,4.34,4.34,0,0,0,1.71-5.51l-2.06,2.05,3.3,2.54,1.15-2.74a5,5,0,0,1-2.44-1.85l-2.06,2.05a3.19,3.19,0,0,1,1.43,1.64l2.5-1.46-3.82-4.9v2.12c.47-.38.94.81,1,1a5.39,5.39,0,0,1-.06,2.19l1.05-1c-.28,0-.63-.72-.46-.93l-1.06.44a2.53,2.53,0,0,1,1.86,1c1.15,1.52,3.75,0,2.59-1.52Z"/><path class="cls-3" d="M137.22,343.94a3.73,3.73,0,0,0-1.29-4.78,1.53,1.53,0,0,0-1.52,0,5.24,5.24,0,0,0-2.23,6.89,1.5,1.5,0,0,0,2.35.31,3.92,3.92,0,0,0,1.27-3,2.34,2.34,0,0,0-2.2-2.22c-2.16,0-3.41,2.71-1.51,4a1.51,1.51,0,0,0,2.26-1.29,4.76,4.76,0,0,0-2.13-3.57,1.51,1.51,0,0,0-2.05.53,9,9,0,0,0-1.29,5.46,1.58,1.58,0,0,0,1.1,1.44,4.16,4.16,0,0,0,5.14-1.94c.91-1.7-1.68-3.22-2.59-1.51a1.24,1.24,0,0,1-1.75.56l1.1,1.45a6.19,6.19,0,0,1,.88-3.94l-2,.54a1.45,1.45,0,0,1,.64,1l2.25-1.3c-.21,1.32-.12,1.81.28,1.49s0-.37-1.06-.41c-.07,0-.33.53-.41.61l2.36.3a2.19,2.19,0,0,1,1.16-2.78h-1.52a.57.57,0,0,1,.22.66c-.78,1.75,1.8,3.28,2.59,1.52Z"/></svg>
