<svg id="Lag_1" data-name="Lag 1" xmlns="http://www.w3.org/2000/svg" width="155" height="280" viewBox="0 0 155 280"><defs><style>.cls-1{fill:#fff5ee;}.cls-2{fill:#998675;opacity:0.66;}.cls-3{fill:#ffece2;}.cls-4{fill:#af0005;}.cls-5{fill:#bf0000;}</style></defs><title>Tegnebræt 5</title><path class="cls-1" d="M132.24,268.63H21.36c-5.42,0-9.86-4.06-9.86-9V89.11a8.63,8.63,0,0,1,2.9-6.37,10.31,10.31,0,0,1,7-2.65H132.24c5.42,0,9.85,4.06,9.85,9v170.5C142.09,264.57,137.66,268.63,132.24,268.63Z"/><path class="cls-2" d="M40.24,268.72a167.27,167.27,0,0,0,29.57-17.28c68.22-50,72.48-135.63,72.69-161.87l-.41.12V261.94l-3,4.51L134.73,269l-59.31-.28Z"/><path class="cls-3" d="M37.78,47h82.14L138,80.09H23l-6.57,3Z"/><ellipse class="cls-4" cx="79.26" cy="59.44" rx="6.16" ry="5.63"/><polygon class="cls-5" points="76.49 54.79 74.01 50.57 53.23 15.22 60.6 9 68.43 17.13 76.49 54.79"/><path class="cls-5" d="M50.41,34c4.3.94,28.4,25.72,28.4,25.72L56.1,26.62,46,20.12,41.3,26.25Z"/><path d="M79.11,237.47c-10.43-10.3-17.57-23.72-19-38.41-.36-3.58-.57-7.45.53-10.92l1-2.41q5-3.19,5.7,1.55c.71,1.69,1.37,3.41,2,5.13A177.15,177.15,0,0,1,76,215.2l2.9-.79a51.73,51.73,0,0,1-3.77-18.62,27.9,27.9,0,0,1,1-8.13,17.73,17.73,0,0,1,2.19-4.81l1.57-1.93c1.35-2,3-2.24,5.09-.55,3.86,1.32,3.33,1.48,3.66,5.08.14,1.56.2,3.13.26,4.69.1,3.12.08,6.25-.08,9.38a114.26,114.26,0,0,1-3.09,21c-.45,1.87,2.44,2.68,2.89.8A116.85,116.85,0,0,0,92,191.07c-.13-5.19.44-15.95-7.38-15.71-6.67.21-10.69,7.94-11.81,13.6-1.72,8.72.08,18.07,3.25,26.24a1.5,1.5,0,0,0,2.9-.79A181.41,181.41,0,0,0,74,196.8c-1.52-4.51-2.89-9.84-5.49-13.87-4.5-7-10.1.88-11.22,5.87-1.91,8.47.53,18.57,3.56,26.49A68.68,68.68,0,0,0,77,239.59c1.38,1.35,3.5-.77,2.12-2.12Z"/><path d="M49.18,179.69A270.09,270.09,0,0,1,98,169.54a1.5,1.5,0,0,0,0-3l-1.5-.08c-1.93-.11-1.92,2.89,0,3l1.5.08v-3a274.32,274.32,0,0,0-49.62,10.25c-1.84.57-1.06,3.46.8,2.9Z"/><path d="M67.37,157.62c12.84-5,23.29-15.68,25.33-29.67,1.22-8.4-1.59-30.56-14.41-28.58-6.35,1-11,7.73-14.22,12.7a56,56,0,0,0-8.18,20.75c-.68,4-2.91,14,.93,16.82,4.14,3,10.36-2.76,12.95-5.46,6-6.26,10.2-14.61,12.43-22.94,1.55-5.79,4-15-1.31-19.52-1.46-1.26-3.59.86-2.12,2.12,5,4.33,1.1,15.5-.75,20.73-2.4,6.76-6.22,13.67-11.51,18.62-2.78,2.6-8.36,6.1-8.43-.67a49.81,49.81,0,0,1,.84-9.67,53.53,53.53,0,0,1,6.89-17.92c3.29-5.4,11.81-17.81,18.58-10,4.37,5,5.92,13,5.65,19.49-.6,14.07-10.74,25.39-23.46,30.33-1.78.69-1,3.59.79,2.89Z"/><path d="M102,113.94a61.29,61.29,0,0,1,12.22-13l-1.82.24-.47-.83c-.58,1.85,2.32,2.64,2.89.8a1.94,1.94,0,0,0-.9-2.56,1.6,1.6,0,0,0-1.82.23,64.25,64.25,0,0,0-12.69,13.65c-1.1,1.59,1.5,3.1,2.59,1.52Z"/><path d="M108.32,101.13l-.57,56.23h3l-.16-3.3c-.09-1.92-3.1-1.93-3,0l.16,3.3a1.5,1.5,0,0,0,3,0l.57-56.23a1.5,1.5,0,0,0-3,0Z"/><path d="M101.71,102.59a41.43,41.43,0,0,1,5.35-4.73l-2-2-1.18,1.92c-1,1.65,1.58,3.16,2.59,1.52l1.18-1.92c.74-1.22-.81-3-2-2.06a46.08,46.08,0,0,0-6,5.2c-1.34,1.39.78,3.52,2.12,2.12Z"/></svg>
