<svg id="Lag_1" data-name="Lag 1" xmlns="http://www.w3.org/2000/svg" width="155" height="280" viewBox="0 0 155 280"><defs><style>.cls-1{fill:#fff5ee;}.cls-2{fill:#998675;opacity:0.66;}.cls-3{fill:#ffece2;}.cls-4{fill:#af0005;}.cls-5{fill:#bf0000;}</style></defs><title>Tegnebræt 4</title><path class="cls-1" d="M132.68,267.91H25.52c-5.23,0-9.52-4-9.52-9V89.18a8.67,8.67,0,0,1,2.8-6.33,9.77,9.77,0,0,1,6.72-2.64H132.68c5.24,0,9.53,4,9.53,9V258.93C142.21,263.87,137.92,267.91,132.68,267.91Z"/><path class="cls-2" d="M44.58,268a200.63,200.63,0,0,0,31.75-23.93c57.25-53,65.31-124.39,66.67-154.79l-.4.12V260.87l-2.85,4.5-4.26,2.54q-28.2-.42-57.32-.28Q61.22,267.72,44.58,268Z"/><path class="cls-3" d="M41.4,47.31h79.37q8.74,16.44,17.47,32.9H27.11l-6.35,3Z"/><ellipse class="cls-4" cx="81.48" cy="59.65" rx="5.95" ry="5.61"/><polygon class="cls-5" points="81.5 57.75 82.38 53.05 89.75 13.7 99.41 13 100.04 23.77 81.5 57.75"/><path class="cls-5" d="M110.35,34.93c-1.27,3.84-29,24-29,24l36.37-18.39,7.52-8.69-6.16-4.73Z"/><path d="M87.12,205.38c-15.51-14.73-25.91-34.61-27.91-56-.1-1.11-1.05-6.61-.36-7.14,2-1.53,5,4.95,5.78,6.24q4.44,7.37,8.21,15.09a193.77,193.77,0,0,1,12.54,33.25l2.75-1.15a25.54,25.54,0,0,1-2.78-7c-.45-1.88-3.34-1.08-2.89.79a27.81,27.81,0,0,0,3.07,7.68A1.51,1.51,0,0,0,88.28,196a197.55,197.55,0,0,0-16.14-40.4q-2.56-4.8-5.39-9.44c-1.38-2.26-2.7-5.2-5-6.74s-5.05-1.27-5.86,1.7c-1.33,4.89.63,12.38,1.6,17.28a90,90,0,0,0,5.26,17.13A94.52,94.52,0,0,0,85,207.5c1.4,1.33,3.53-.79,2.12-2.12Z"/><path d="M48,143l13.86-12.41c1.25-1.11-.42-3.36-1.82-2.35L42.69,140.78l2.05,2.05,1.53-2.41c1-1.64-1.56-3.15-2.59-1.52l-1.53,2.41c-.77,1.22.82,2.95,2.05,2.06l17.39-12.56-1.82-2.36L45.91,140.86c-1.44,1.29.69,3.4,2.12,2.12Z"/><path d="M78.64,141c5.08-1.76,11.39-1.07,16.74-1.2,5.61-.15,11.81-1,17.23.63l.4-2.95-1.76-.06c-1.93-.06-1.93,2.94,0,3l1.76.06c1.73.06,2-2.46.4-2.95-5.75-1.77-12.1-.88-18-.73-5.68.14-12.11-.57-17.54,1.31-1.82.62-1,3.52.8,2.89Z"/><path d="M77.81,139.3l1.4,17.94a1.52,1.52,0,0,0,2.56,1.06,3.24,3.24,0,0,0,1.17-2.91c-.14-1.91-3.14-1.93-3,0l-.29.79,2.56,1.06-1.4-17.94c-.15-1.91-3.15-1.92-3,0Z"/><path d="M109.35,138.91v20.28a1.5,1.5,0,0,0,3,0v-3.83a1.5,1.5,0,0,0-3,0v3.83h3V138.91a1.5,1.5,0,0,0-3,0Z"/><path d="M80.29,156.15c5.24,1,10.63-.18,15.9-.59,6.4-.49,12.82-.7,19.24-.72,1.95,0,1.9-2.85,0-3l-3-.22c-1.93-.14-1.92,2.86,0,3l3,.22v-3c-5.78,0-11.56.19-17.32.58-5.51.39-11.56,1.89-17,.84-1.88-.37-2.69,2.53-.79,2.89Z"/><path d="M92.37,139.79c1.35,1.26,1.06,5,1.28,6.78l.85,6.76a1.5,1.5,0,0,0,3,0l.17-2.08c.15-1.92-2.85-1.91-3,0l-.17,2.08h3l-1.28-10.14c-.24-1.95-.19-4.09-1.73-5.52s-3.54.8-2.12,2.12Z"/><path d="M81.11,149.22a287.93,287.93,0,0,1,30.53-.72c1.63.05,1.86-2,.76-2.8a2.76,2.76,0,0,0-2.69-.74c-1.9.17-1.92,3.17,0,3l1.17.33.76-2.79a287.93,287.93,0,0,0-30.53.72c-1.92.15-1.93,3.15,0,3Z"/><path d="M76.77,120.24c.17,2.86-1.13,4.57-2,7.15-.35,1.06-.74,1.89-.21,3,1.11,2.35,3.36,1.46,5.31,1,11.49-2.7,23.74-4.74,35.23-1.25v-2.9l-1.11.15c-1.9.27-1.09,3.16.8,2.9l1.1-.15c1.56-.22,1.29-2.51,0-2.9-8.65-2.63-16.46-2-25.32-.81-1.13.15-13.36,2.52-13.35,2.55s1.95-3.59,2.11-4.15a13.26,13.26,0,0,0,.4-4.61c-.11-1.92-3.11-1.93-3,0Z"/><path d="M53,245.27a73.87,73.87,0,0,1,11.76-9c1.65-1,5.53-2.26,5.35-4.87-.15-2.33-2.48-2.32-4.24-2.38a69,69,0,0,0-7.47.06c-2.74.21-5.27.84-8,0a1.51,1.51,0,0,0-1.16,2.74l11.4,6.24c2.5,1.37,5.61,4,8.39,4.46,2.61.45,4.67-2.58,2-4.06-1.7-.93-3.21,1.66-1.52,2.59a1.85,1.85,0,0,0-1.65-2.46L65,237l-4.27-2.34-10-5.46L49.63,232c3,.93,5.73.34,8.78.11,1.49-.1,3-.13,4.48-.13,1,0,2,0,3,.07.74-.28.71-.22-.11.18-1,1.08-3.14,1.85-4.36,2.65s-2.41,1.62-3.58,2.49a82,82,0,0,0-6.94,5.8c-1.42,1.32.7,3.44,2.12,2.13Z"/><path d="M50.29,222.38a10.21,10.21,0,0,0-2.37,3.77,1.5,1.5,0,0,0,1.44,1.9q11.42-.88,22.85-1a1.52,1.52,0,0,0,1.3-2.26,5.6,5.6,0,0,0-2-2c-1.6-1.09-3.1,1.51-1.51,2.59l.89.92,1.29-2.26q-11.44.09-22.85,1l1.45,1.9,1.6-2.44c1.34-1.4-.78-3.52-2.12-2.13Z"/><path d="M58.21,222.69l.62,2.65a1.5,1.5,0,0,0,2.9-.79l-.63-2.66a1.5,1.5,0,0,0-2.89.8Z"/><path d="M64.9,221.92v2.62a1.5,1.5,0,0,0,3,0v-2.62a1.5,1.5,0,0,0-3,0Z"/><path d="M42.92,221.49A231.73,231.73,0,0,1,87.42,219c1.93.08,1.93-2.92,0-3a236.81,236.81,0,0,0-45.3,2.64c-1.9.3-1.09,3.19.8,2.9Z"/><path d="M61.85,218.19a5.52,5.52,0,0,0-1.18-4.84l.24,1.82.06-.1-.54.54-1.17-.17-.39-.67,0,.11a1.54,1.54,0,0,0,1.84,1.05,1.5,1.5,0,0,0,1-1.84,1.93,1.93,0,0,0-3.48-.44,1.54,1.54,0,0,0,.23,1.82A2.29,2.29,0,0,1,59,217.4c-.43,1.87,2.46,2.68,2.89.79Z"/></svg>
