<svg id="Lag_1" data-name="Lag 1" xmlns="http://www.w3.org/2000/svg" xmlns:xlink="http://www.w3.org/1999/xlink" width="155" height="280" viewBox="0 0 155 280"><defs><style>.cls-1{opacity:0.16;fill:url(#Ikke-navngivet_forløb_81);}.cls-2{fill:#fff5ee;}.cls-3{fill:#998675;opacity:0.66;}.cls-4{fill:#ffece2;}.cls-5{fill:#af0005;}.cls-6{fill:#bf0000;}</style><radialGradient id="Ikke-navngivet_forløb_81" cx="-447.73" cy="626.88" r="287.08" gradientTransform="translate(943.49 -259.77) scale(1.56 1.5)" gradientUnits="userSpaceOnUse"><stop offset="0.3" stop-color="#ffff42"/><stop offset="0.67" stop-color="#5b5f62"/><stop offset="0.93" stop-color="#cbd712" stop-opacity="0.2"/></radialGradient></defs><title>Tegnebræt 7</title><ellipse class="cls-1" cx="242.96" cy="679.76" rx="449.18" ry="430.26"/><path class="cls-2" d="M121.47,274.71H13.13a9.54,9.54,0,0,1-9.63-9.39V87.63A9.23,9.23,0,0,1,6.33,81a9.72,9.72,0,0,1,6.8-2.76H121.47a9.54,9.54,0,0,1,9.63,9.4V265.32A9.54,9.54,0,0,1,121.47,274.71Z"/><path class="cls-3" d="M31.59,274.71a145.28,145.28,0,0,0,22.47-12.53C124.28,214.42,130.69,118.72,131.5,88l-.4.13v179.5l-2.88,4.7L123.91,275,66,274.71Z"/><path class="cls-4" d="M29.18,43.79h80.25l17.66,34.44H14.74L8.32,81.36Z"/><ellipse class="cls-5" cx="69.71" cy="56.71" rx="6.02" ry="5.87"/><polygon class="cls-6" points="69.31 56.31 67.51 51.64 52.45 12.48 60.48 7 66.9 16.39 69.31 56.31"/><path class="cls-6" d="M75.73,18.74c1.6,3.92-6.42,37.57-6.42,37.57l16-37.57V7h-8Z"/><path d="M61,194.44l44.11-33.1a1.54,1.54,0,0,0,.54-2.05,4.59,4.59,0,0,0-4.06-2.26c-4.33-.35-9.25.87-13.58,1.32l-27.56,2.84a1.52,1.52,0,0,0-1.06,2.56c12.16,13.45,28.23,22.48,40.71,35.59l2.12-2.12-4.19-3.81c-1.42-1.29-3.55.82-2.12,2.13l4.19,3.8a1.5,1.5,0,0,0,2.12-2.12c-12.48-13.12-28.55-22.14-40.71-35.59l-1.06,2.56L81.38,162l9.51-1c2.1-.21,10.91-2.22,12.19-.25l.53-2.05-44.1,33.1c-1.53,1.15,0,3.75,1.51,2.59Z"/><path d="M63.07,156.1l5.32-13.55-3-.4a44.63,44.63,0,0,1-3.61,13.15,1.51,1.51,0,0,0,2.05,2c4.61-2.52,11.1-1,16.11-.61l15.75,1.13a1.52,1.52,0,0,0,1.45-1.9,2.24,2.24,0,0,0-1-1.73l.23,1.82c2.47-4.75,4.27-10.16-.24-14.29a1.52,1.52,0,0,0-2.56,1.06L93.44,144c-.23,1.91,2.77,1.9,3,0l.14-1.15L94,143.89c3.47,3.18,1.55,7.23-.23,10.66a1.51,1.51,0,0,0,.24,1.81l.26.41,1.45-1.9-19.69-1.41c-4.74-.34-9.36-1.06-13.68,1.3l2.05,2.05a49.52,49.52,0,0,0,4-14.66c.21-1.81-2.38-1.84-3-.4l-5.32,13.56c-.7,1.79,2.2,2.57,2.9.79Z"/><path d="M76.89,146.29a2,2,0,0,0,2.48,1.05,1.55,1.55,0,0,0,1.11-1.45,3.38,3.38,0,0,0-.53-1.72,1.52,1.52,0,0,0-2.74.36,16.54,16.54,0,0,0-1,5.17,1.52,1.52,0,0,0,1.5,1.5,1.54,1.54,0,0,0,1.5-1.5,3.71,3.71,0,0,1,.61-1.45c1.06-1.62-1.53-3.12-2.59-1.51a6.8,6.8,0,0,0-1,3h3a14.31,14.31,0,0,1,.9-4.38l-2.74.36q.27.27.12.21l1.1-1.45h0l.75.21.14.14a1.51,1.51,0,0,0-2-.54,1.54,1.54,0,0,0-.54,2Z"/><path d="M37.48,201.49a111.78,111.78,0,0,0,18.28-63.3,1.51,1.51,0,0,0-2.79-.75l-1,1.77a1.5,1.5,0,0,0,2.59,1.51l1-1.77-2.8-.76A109,109,0,0,1,34.89,200c-1.06,1.62,1.54,3.13,2.59,1.51Z"/><path d="M34.26,159.62A83.4,83.4,0,0,0,61.9,131.51,1.5,1.5,0,0,0,59.31,130a80,80,0,0,1-26.57,27c-1.63,1-.13,3.62,1.52,2.6Z"/><path d="M41.57,173.85a33.42,33.42,0,0,0,11.69-11A1.5,1.5,0,0,0,50.91,161l-2,2.18c-1.31,1.41.81,3.54,2.12,2.12l2-2.17-2.36-1.82a30.24,30.24,0,0,1-10.61,9.93,1.5,1.5,0,0,0,1.51,2.59Z"/><path d="M98.17,136.71a9.22,9.22,0,0,0,9.73-9.17c-.06-1.93-3.06-1.94-3,0a6.22,6.22,0,0,1-6.73,6.17c-1.93-.13-1.92,2.87,0,3Z"/><path d="M90.83,134.87c1.88-1.63,4-4,4.59-6.51s-1.5-4.49-3.86-3.46c-1.77.77-.24,3.35,1.51,2.59-.94.41-1.57,2.18-2.17,3a15.73,15.73,0,0,1-2.19,2.28c-1.46,1.27.67,3.38,2.12,2.12Z"/><path d="M37.38,221.82c10.81-2,22.33-4.29,33.32-2.28,3,.53,15.78,5.42,11.72,9.88-.9,1-5.92,1.16-7.29,1.42-2.13.39-4.27.77-6.4,1.13-4.18.71-9.33.65-13.29,2.09-1.58.58-3.13,1.74-2.95,3.65.14,1.58,1.25,2.17,2.6,2.56,1.71.49,3.89.21,5.66.32a40.66,40.66,0,0,1,4.54.37q2.47,5.22-1.3,5.77c-1.84.58-1.05,3.47.79,2.89,2.77-.87,6.42-2.32,6.58-5.75.19-3.86-3.73-5.62-6.92-6.05-2.23-.3-5.69.43-7.73-.42s1.82-.79,2.72-1c1.81-.34,3.68-.54,5.51-.83q5-.8,10.07-1.71c2.78-.51,6.7-.58,9.24-1.88,7.8-4-5.59-13.35-9.25-14.53-12.15-3.89-26.25-.77-38.42,1.44-1.9.34-1.09,3.23.8,2.89Z"/></svg>
