<svg id="Lag_1" data-name="Lag 1" xmlns="http://www.w3.org/2000/svg" xmlns:xlink="http://www.w3.org/1999/xlink" width="155" height="280" viewBox="0 0 155 280"><defs><style>.cls-1{opacity:0.16;fill:url(#Ikke-navngivet_forløb_81);}.cls-2{fill:#fff5ee;}.cls-3{fill:#998675;opacity:0.66;}.cls-4{fill:#ffece2;}.cls-5{fill:#af0005;}.cls-6{fill:#bf0000;}</style><radialGradient id="Ikke-navngivet_forløb_81" cx="-221.73" cy="627.38" r="287.08" gradientTransform="translate(815.88 -260.02) scale(1.56 1.5)" gradientUnits="userSpaceOnUse"><stop offset="0.3" stop-color="#ffff42"/><stop offset="0.67" stop-color="#5b5f62"/><stop offset="0.93" stop-color="#cbd712" stop-opacity="0.2"/></radialGradient></defs><title>Tegnebræt 6</title><ellipse class="cls-1" cx="468.96" cy="680.26" rx="449.18" ry="430.26"/><path class="cls-2" d="M134.08,272.11H21.51c-5.51,0-10-4.2-10-9.34V86a9,9,0,0,1,2.94-6.6,10.3,10.3,0,0,1,7.07-2.75H134.08c5.5,0,10,4.21,10,9.35V262.77C144.08,267.91,139.58,272.11,134.08,272.11Z"/><path class="cls-3" d="M40.68,272.21A167.74,167.74,0,0,0,58.2,262.09c70.53-46.79,83.42-134.55,86.3-175.63l-.42.13V265.17l-3,4.68-4.48,2.65-60.21-.29Z"/><path class="cls-4" d="M38.18,42.37h83.39l18.35,34.26H23.17L16.5,79.75Q27.35,61.06,38.18,42.37Z"/><ellipse class="cls-5" cx="80.29" cy="55.22" rx="6.25" ry="5.84"/><polygon class="cls-6" points="78.14 52.31 75.19 48.18 50.42 13.59 57.21 6.5 65.99 14.17 78.14 52.31"/><path class="cls-6" d="M91.58,24.38C92.46,28.5,77.73,60,77.73,60l23.69-33.92L103.7,14.6l-8.2-1.42Z"/><path d="M58.26,156.81c12.47-6.57,23.92-15.4,32.21-26.91,3.33-4.61,17.65-27.63,6-29.88-1.88-.37-2.69,2.53-.8,2.89,5.37,1-2.22,16.19-3.2,18A66.67,66.67,0,0,1,83,134.4a94.15,94.15,0,0,1-26.25,19.82c-1.71.9-.19,3.49,1.52,2.59Z"/><path d="M52.62,111.9a59,59,0,0,1,8.89,11.43,1.52,1.52,0,0,0,2.35.31l1.23-1.16c1.41-1.33-.71-3.45-2.12-2.12l-1.23,1.16,2.36.3a61.75,61.75,0,0,0-9.36-12,1.5,1.5,0,0,0-2.12,2.12Z"/><path d="M55.2,173.61c-.68,10-1.38,20-.61,30,.42,5.56.89,12.17,6.56,14.91,6.37,3.08,15.16,1.76,21.64-.29A54.14,54.14,0,0,0,94,213.13c1.63-1,5.09-2.3,5.4-4.49a1.53,1.53,0,0,0-1.44-1.9l-.4,0c-.86-.08-1.42.75-1.5,1.5l0,.26c-.19,1.92,2.81,1.91,3,0l0-.26-1.5,1.5.4,0-1.45-1.9c-.19,1.29-6,3.86-7,4.37a48.75,48.75,0,0,1-9.18,3.64c-6.1,1.68-17.6,3.46-21.13-3.45-2.67-5.23-2-13.34-2-19.07,0-6.59.49-13.16.94-19.72.14-1.93-2.86-1.92-3,0Z"/><path d="M44.07,195.82c11.28-.6,23.24-3.92,33.95-7.39,2.74-.89,5.45-1.89,8.1-3,2.1-.89,4.39-2.56,6.56-3.13q2.53-1.93.81.41A3.39,3.39,0,0,1,91.15,185,43.5,43.5,0,0,1,87,187.55L78,193.21c-1.63,1-.13,3.62,1.51,2.6L91,188.6c2.11-1.32,5.74-2.81,6.65-5.44,1.12-3.21-1.65-5.45-4.57-4.49-4,1.32-7.78,4-11.79,5.44-3.8,1.41-7.69,2.58-11.61,3.61-8.24,2.17-17.11,4.65-25.63,5.1-1.92.1-1.93,3.1,0,3Z"/><path d="M57.2,250.22a81.35,81.35,0,0,1,9.43-9.5c1.47-1.26-.66-3.37-2.12-2.12a81.35,81.35,0,0,0-9.43,9.5c-1.24,1.47.87,3.6,2.12,2.12Z"/><path d="M96.66,249.75l-9.17-8.62a1.51,1.51,0,0,0-1.81-.23,1.8,1.8,0,0,0,.92,3.37c1.93.16,1.92-2.84,0-3l-.23,0,1.3.75.08.32L87,243.61l.19-.12-1.82-.24,9.17,8.62c1.4,1.32,3.53-.79,2.12-2.12Z"/><path d="M97.1,242.48a70,70,0,0,1,10,9.34l1.82-2.36a35.64,35.64,0,0,1-11.43-9.56c-1-1.33-3.35.43-2.36,1.82l1.07,1.51c1.11,1.56,3.71.06,2.59-1.52l-1.07-1.51L95.33,242a38,38,0,0,0,12,10,1.5,1.5,0,0,0,1.82-2.35,69.43,69.43,0,0,0-10-9.34c-1.48-1.21-3.62.9-2.12,2.12Z"/><path d="M51.77,248.26l-.11,0a1.45,1.45,0,0,0-1.46.39,1.69,1.69,0,0,0-.45,1.73,1.55,1.55,0,0,0,1.44,1.1c1.76.11,3.88-2.33,5.08-3.37a61.64,61.64,0,0,0,5.57-5.51,1.5,1.5,0,0,0-2.12-2.12,38.67,38.67,0,0,0-7.61,9c-.74,1.23.8,2.93,2.06,2.05A38.28,38.28,0,0,0,60.5,246l-2.35-1.81a11.91,11.91,0,0,1-3.65,4.05c-1.57,1.1-.07,3.7,1.52,2.59a15.36,15.36,0,0,0,4.72-5.13c.81-1.45-1.18-3.11-2.36-1.82a34.5,34.5,0,0,1-5.73,5.06L54.71,251a36.29,36.29,0,0,1,7.13-8.4l-2.12-2.12c-1.37,1.52-2.79,3-4.29,4.37-.67.62-1.36,1.22-2.06,1.8L52,247.7c-.3.23-1.26.71-.85.74l1.45,1.1,0-.15-.39,1.46.11-.12-1.46.38.11,0c1.8.72,2.57-2.18.8-2.9Z"/></svg>
