<svg id="Lag_1" data-name="Lag 1" xmlns="http://www.w3.org/2000/svg" width="85" height="70" viewBox="0 0 85 70"><defs><style>.cls-1{fill:#c1272d;}</style></defs><title>Tegnebræt 18</title><rect class="cls-1" x="5" y="20.5" width="30" height="30" rx="12" ry="12"/><polygon class="cls-1" points="52 6.5 26 17.95 26 53.29 52 63.5 52 6.5"/><path class="cls-1" d="M60,57.5a39.75,39.75,0,0,0,0-42h4a46.6,46.6,0,0,1,0,42Z"/><path class="cls-1" d="M69,66.5a60.25,60.25,0,0,0,0-60h4a60.25,60.25,0,0,1,0,60Z"/><path class="cls-1" d="M53,48.5a24.63,24.63,0,0,0,0-26h2.48a28.89,28.89,0,0,1,0,26Z"/></svg>
