<svg id="Lag_1" data-name="Lag 1" xmlns="http://www.w3.org/2000/svg" width="86" height="84" viewBox="0 0 86 84"><defs><style>.cls-1{fill:#c1272d;}.cls-2{fill:none;stroke:#fff;stroke-miterlimit:10;stroke-width:6px;}</style></defs><title>Tegnebræt 19</title><rect class="cls-1" x="5" y="32" width="30" height="30" rx="12" ry="12"/><polygon class="cls-1" points="52 18 26 29.45 26 64.79 52 75 52 18"/><path class="cls-1" d="M60,69a39.75,39.75,0,0,0,0-42h4a46.6,46.6,0,0,1,0,42Z"/><path class="cls-1" d="M69,78a60.25,60.25,0,0,0,0-60h4a60.25,60.25,0,0,1,0,60Z"/><path class="cls-1" d="M53,60a24.63,24.63,0,0,0,0-26h2.48a28.89,28.89,0,0,1,0,26Z"/><line class="cls-2" x1="9.5" y1="82.5" x2="80.5" y2="11.5"/></svg>
