<svg id="Lag_1" data-name="Lag 1" xmlns="http://www.w3.org/2000/svg" xmlns:xlink="http://www.w3.org/1999/xlink" width="1000" height="800" viewBox="0 0 1000 800"><defs><style>.cls-1{fill:url(#Ikke-navngivet_forløb_9);}.cls-2{fill:#fff;}.cls-3{fill:#000021;}.cls-4{fill:url(#Ikke-navngivet_forløb_19);}.cls-5{fill:url(#Ikke-navngivet_forløb_19-2);}.cls-6{fill:#c1272d;}</style><linearGradient id="Ikke-navngivet_forløb_9" x1="500" y1="800" x2="500" gradientUnits="userSpaceOnUse"><stop offset="0.22"/><stop offset="1" stop-color="#072550"/></linearGradient><linearGradient id="Ikke-navngivet_forløb_19" x1="341.07" y1="766" x2="341.07" y2="67.36" gradientUnits="userSpaceOnUse"><stop offset="0.22" stop-color="#00212a"/><stop offset="1" stop-color="#fff"/></linearGradient><linearGradient id="Ikke-navngivet_forløb_19-2" x1="803.23" y1="586.06" x2="803.23" y2="368.69" gradientTransform="matrix(-0.97, -0.23, -0.23, 0.97, 1741.65, 211.04)" xlink:href="#Ikke-navngivet_forløb_19"/></defs><title>Tegnebræt 14</title><rect class="cls-1" width="1000" height="800"/><path class="cls-2" d="M361.52,101.2,398.63,174q10.15-10.26,14.11-27.39t2.1-41.46L442,106.18q-.5,51.75-11.08,72.31a160,160,0,0,1-26.08,36.91,195.74,195.74,0,0,1-37.25,30.23L356,218.09l25.09-20.51-40.72-78.42Z"/><path class="cls-2" d="M479.2,100.61V113.4l7.61-12.79h64.46q11.91,3.31,11.23,33.59v88q-2.34,10.74-18.26,11.23H469.72q-16.59.69-19.23-14.45V106.57Zm0,28.81v75.19h54.49V129.42Z"/><path class="cls-2" d="M604,99.34q-5.57,51.36-1.51,68.85t12.94,27.63q8.88,10.17,40.23,4.89l-.1-100,28.32,1.66V230.3l-28.32,2.83V217l-5.07,17.67-6.16,1.37q-27.44.48-41.45-7.72T579.78,195q-9.07-25.09-7.42-72.46L574,104.52Z"/><path class="cls-2" d="M325.63,341h86.14l18.75.1v59.37a78.46,78.46,0,0,1-2.89,28.66q-4,13.72-15.62,26.76T386.52,472q-13.92,3-64,1.85l.19-27.73,18.56-.2-10.94-5.47V370H321Zm32.91,29v76.66q14.85,2.05,25.59-4.54t14.35-16.5q3.61-9.92,2.25-55.62Z"/><path class="cls-2" d="M473,340.22l-.1,133.4H443.5l-.09-128.91Z"/><path class="cls-2" d="M485.79,341.68h96.58v27.84l-55.76.09v15.53l44.14.1-3.12,26.85h-41v34.48L584,439.93l8.2,29.49L490.48,482.21l-3.13-29.49,11.53-2V412.29H486.77l2.73-25.1,9.57-.1-.1-11.32L514.7,370l-28.91.1Z"/><path class="cls-2" d="M602.68,341h86.14l18.75.1v59.37a78.68,78.68,0,0,1-2.88,28.66q-4.07,13.72-15.63,26.76T663.57,472q-13.92,3-64,1.85l.19-27.73,18.56-.2-10.94-5.47V370H598Zm32.91,29v76.66q14.85,2.05,25.59-4.54t14.36-16.5q3.6-9.92,2.24-55.62Z"/><path class="cls-3" d="M43.94,58.32,60.79,46.41C67.3,40.32,76.3,39,82.67,42.77c5.4,3.19,7,8.95,7.44,10.52l6.37,16.83a15.52,15.52,0,0,1-3.7,21.56l-16.85,11.9a32.57,32.57,0,0,1-9.29.26,41.75,41.75,0,0,1-12.27-4A54.88,54.88,0,0,1,38.85,88c-1.28-.84-6.38-4.36-7.44-10.53C30.13,70.08,35.12,61.86,43.94,58.32Z"/><path class="cls-4" d="M651,766a311.64,311.64,0,0,0-27-114A250.9,250.9,0,0,0,501,529c-49.71-10.32-89.42-11.22-117-10-23.44,1-41.28,3.74-65-3-30.69-8.72-52.36-27.9-66-43a150.61,150.61,0,0,1-4-111q25-56,50-112a145.94,145.94,0,0,0,5-78,143.73,143.73,0,0,0-22-51,128.07,128.07,0,0,0-39-36c-40.39-23.86-81.68-17.41-94-15a117.41,117.41,0,0,0-96,64A213.64,213.64,0,0,0,34,263c2.62,30.14,6.48,62.24,12,96,4.42,27.08,9.51,52.78,15,77a308.7,308.7,0,0,0,75,104,289.06,289.06,0,0,0,47,23,292.86,292.86,0,0,0,98,19l86-9,68-7a175.07,175.07,0,0,1,77,11,168.53,168.53,0,0,1,28,14,160.17,160.17,0,0,1,57,44,154.4,154.4,0,0,1,16,24,243.7,243.7,0,0,1,38,107Z"/><ellipse class="cls-2" cx="88" cy="206.5" rx="20.5" ry="13" transform="translate(-130.3 258.75) rotate(-80.38)"/><ellipse class="cls-2" cx="261" cy="237.5" rx="20.5" ry="13" transform="translate(-53.26 398.02) rotate(-69.36)"/><path class="cls-5" d="M733.15,579.5a96.82,96.82,0,0,1,16.17-32.67,78.11,78.11,0,0,1,45.9-28.67,145.58,145.58,0,0,1,36.17,5.17c7,1.95,12.25,4,19.91,3.64,9.92-.5,17.83-4.79,23-8.41a46.66,46.66,0,0,0,6.86-13.11,47.23,47.23,0,0,0,2.13-20.26q-3.66-18.74-7.31-37.46a45.32,45.32,0,0,1,4-24,44.65,44.65,0,0,1,10.24-13.92,39.74,39.74,0,0,1,14.34-8.18c13.92-4.41,26,.44,29.55,2A36.56,36.56,0,0,1,958.7,429.8a66.44,66.44,0,0,1-3.28,40.44c-2.9,8.95-6.32,18.41-10.36,28.26-3.24,7.9-6.58,15.33-9.94,22.29a96.53,96.53,0,0,1-17.57,18,95.26,95.26,0,0,1-12.45,8.3,89,89,0,0,1-15.86,3.68,90.91,90.91,0,0,1-31-1.1l-25.44-8.75L812.64,534a54.67,54.67,0,0,0-24.12-2.06,53.08,53.08,0,0,0-9.47,2.28,50,50,0,0,0-20.36,9.35,47.84,47.84,0,0,0-6.53,6.15,75.85,75.85,0,0,0-19,29.78Z"/><path class="cls-2" d="M849,417c-10.12-.81-44.88-4.88-68-33a84,84,0,0,1-13-22,126.08,126.08,0,0,1-4-53,61.8,61.8,0,0,1,10-20,62.87,62.87,0,0,1,26-20c3.26-1,26.39-7.87,45,6,2.91,2.17,15.44,11.51,15,24-.48,13.74-16.52,27.75-40,30-2.88,1.62-22.72,13.2-24,33-.11,1.66-.42,8.51,4,18C811.63,405,840.28,414.45,849,417Z"/><ellipse class="cls-6" cx="211" cy="163.5" rx="12" ry="11.5"/></svg>
