<svg id="Lag_1" data-name="Lag 1" xmlns="http://www.w3.org/2000/svg" xmlns:xlink="http://www.w3.org/1999/xlink" width="1920" height="1080" viewBox="0 0 1920 1080"><defs><style>.cls-1{fill:url(#Ikke-navngivet_forløb_17);}.cls-2{fill:#1c2324;}.cls-3{fill:#7c0000;}.cls-4{fill:#fff;}.cls-5{fill:#520000;}.cls-6{fill:maroon;}.cls-7{fill:#ac0000;}.cls-8{fill:#900000;}.cls-9{fill:#b50000;}.cls-10{fill:#420000;}.cls-11{fill:#736357;}.cls-12{fill:#998675;}.cls-13{fill:#2b3437;}.cls-14{opacity:0.16;fill:url(#Ikke-navngivet_forløb_81);}</style><linearGradient id="Ikke-navngivet_forløb_17" x1="959.01" y1="1081.69" x2="959.01" y2="2.08" gradientUnits="userSpaceOnUse"><stop offset="0" stop-color="#2a6665"/><stop offset="0" stop-color="#265d5f"/><stop offset="0" stop-color="#1b4350"/><stop offset="0" stop-color="#0a1a38"/><stop offset="0" stop-color="#00022a"/><stop offset="0.2" stop-color="#2e1b45"/><stop offset="0.31" stop-color="#222544"/><stop offset="0.43" stop-color="#9d4a53"/><stop offset="0.99" stop-color="#000040"/></linearGradient><radialGradient id="Ikke-navngivet_forløb_81" cx="666.77" cy="311.38" r="287.08" gradientTransform="translate(314.19 -102.41) scale(1.56 1.5)" gradientUnits="userSpaceOnUse"><stop offset="0.3" stop-color="#ffff42"/><stop offset="0.67" stop-color="#5b5f62"/><stop offset="0.93" stop-color="#cbd712" stop-opacity="0.2"/></radialGradient></defs><title>Tegnebræt 2</title><polygon class="cls-1" points="1919.5 1081.69 -1.48 1081.69 -1.48 221 -1.48 2.08 1919.5 2.08 1919.5 1081.69"/><path class="cls-2" d="M-1.5,1085H760.3c6.73-55.08,11.49-101.45,14.75-135.86,0,0,17.84-188.32,13.51-311-.69-19.5-2.16-21.33-2.46-43.27-.45-33.67,2.86-41.2-4.91-47.3-13.6-10.68-47.16-6-68.81-3-9.37,1.3-27.94,4.39-32-1-.76-1-.92-3-1.22-7a60.66,60.66,0,0,1,0-10.07c.93-9.75-2-28-4.92-64.41-.77-9.52-.56-8.12-1.23-16.1-1.59-18.86-2.43-22.66-3.68-39.25-1-13.24-.55-12-1.23-17.11-1.55-11.69-3.35-14.23-1.23-16.1,4.94-4.36,19,5.68,43,8,22.16,2.19,40.67-3.35,40.55-4s-11,2.2-25.8,0c-1.88-.28-35.39-5.68-44.24-27.18-1.5-3.66-5-12.07,0-17.11,10.11-10.25,47.6,1.07,47.92,0s-38.5-4.65-45.46-21.13C681,307.54,681,300.82,685.35,298c12.33-8,53.47,18.87,54.06,18.12.32-.41-13.37-5.59-24.57-17.11-10.24-10.53-17.24-25.16-17.22-25.17h0s-10.37-17-11-18.12c-12.73-20.87-19.1-31.31-47.84-125.8a213.74,213.74,0,0,1-22.2,94.6,241.07,241.07,0,0,1-32.49,49.32l29.45-28.18a68.46,68.46,0,0,1-.64,29.18A75.72,75.72,0,0,1,599.19,303a143.37,143.37,0,0,1-24.42,26.17,167.33,167.33,0,0,1-34.41,22.14,267.24,267.24,0,0,0,45.46-17.11A243.83,243.83,0,0,0,611,320.14a92.8,92.8,0,0,1-17.66,37.24,114,114,0,0,1-24.69,23.14c-10,6.92-43.53,24-32.52,18.12L611,376.5a74.33,74.33,0,0,1-17.66,31.2c-14.64,15.71-32.28,22.46-37,24.15a104.63,104.63,0,0,1-14.35,4c-4.59,8.17-4.93,10.62-4.09,11.07,2.13,1.12,11.16-10.62,17.21-9.06,3.75,1,5,6.7,5.38,12.08,2.67-.9,5.94-2.42,6.9-5,1.48-4-3.17-8.68-2.45-9.05s3.8,4.78,8.6,5c3,.15,6.22-1.64,6.14-3-.13-2.36-9.84-2.11-11.06-5-1.08-2.6,4.56-7.61,24.69-17.11l49-41.26q2.14,40.8,3.69,82.52,1.58,42.74,2.46,84.54l-126.56,1Q520.6,457,519.27,371.47l-.84-85.55a131.27,131.27,0,0,0,20.7,15.1c7.44,4.38,11.8,6.89,18.43,8.05a45.21,45.21,0,0,0,22.12-2,78.51,78.51,0,0,1-27-11.07c-20-13.32-24.68-31.71-25.8-37.24l-10.94-30.19,58.86,17.11-46.7-26.17c-12.79-13.48-20.68-23.31-18.43-25.16,4.66-3.81,51.2,27.61,51.61,27.17.25-.26-18.31-9.94-34.4-26.16a116.3,116.3,0,0,1-22.72-32.21,254.34,254.34,0,0,0,22.72,15.1,275.74,275.74,0,0,0,39.31,19.12,167.58,167.58,0,0,1-24.57-21.13c-4.46-4.69-8.36-9.36-18.43-23.15-6.1-8.36-14.14-19.61-23.35-33.21L533,134l14.74,5c-8-3.49-22-10.75-33.17-24.15A70.27,70.27,0,0,1,502.27,93.7a48,48,0,0,1-8.6-14.09,42.35,42.35,0,0,1-2.16-23.14q-4.56,15.35-8.9,31.19-3.19,11.69-6.14,23.15A39.11,39.11,0,0,1,458,129.93c-11.45,5.6-27.81,6.86-28.89,4.71a.59.59,0,0,1,.1-.68c1.25-1.1,9.21,4.19,14,6,5.83,2.22,15.84,2.78,33.91-6a100.53,100.53,0,0,1-22.85,25.16,125.62,125.62,0,0,1-41.08,21.13,102.74,102.74,0,0,0,27.57-3,92,92,0,0,0,29.49-13.08c-.05,2.52-.76,20.86-19.66,33.21-11.93,7.79-27.47,8.9-34.44,9-.92,0-3.59-.26-3.65,0-.16.68,15.95,3.65,29.48,6l24.58-10.07-55.9,38.25s-28.6-61.39-25.24-56.36,21.88,16.1,21.88,16.1a114.51,114.51,0,0,1-23.06-32.2A99.61,99.61,0,0,1,376.25,143l18.51,10.06a214.57,214.57,0,0,1-19.05-30.19,197.72,197.72,0,0,1-17.13-46.3,71.44,71.44,0,0,1-8.67,51.33,87,87,0,0,1-23.3,25.16L348.48,143a64.23,64.23,0,0,1-4.71,26.16c-6.35,15.73-17.44,26-23.89,31.2l28.6-16.1s-27.76,49.31-30.28,51.32-27.77,31.2-27.77,31.2l-6.73-60.38c17.08,10.24,34.92,20.74,35.49,20.13.27-.28-3.39-2.61-7.37-6-11.63-10-16.35-21.13-19.66-29.19,0,0-1.2-2.93-7.61-26.16l18.5,12.07-23.55-48.3s29.31,8,23.91,5-28.12-47.3-28.12-47.3c30.31,10.8,37.43,12.64,37.76,12.07.46-.78-12.58-5.08-25.8-16.1-4-3.36-10.77-9.06-16-18.11a51.36,51.36,0,0,1-6.92-24.16c22,14.35,27.49,17.42,27.81,17.11.54-.52-16.34-7.79-24.57-23.15C260.44,21,258-1.89,256.53-1.91h-2.46a2.14,2.14,0,0,0-1.23,0c-1.43.54-1.16,3.14-1.23,5-.07,2.05-.52,2.36-2.45,8.05-2.4,7-4.28,14.06-4.92,16.1-1.87,6-7.61,15.12-24.57,29.19l27-14.09A59.75,59.75,0,0,1,232,72.57a77.87,77.87,0,0,1-24.58,18.11l35.94-14.09L208,134s-13.46-36.23-10.94-35.23,10.94,1,10.94,1-21.88-42.27-21.88-39.25,10.94,8.05,10.94,8.05L174.33,31.31l-9.25,45.28,9.25-6-9.25,37.24s-33-48.08-34.44-47.42c0,0,0,.08,0,.12-.05,1.21,7.6,2.83,30.1,5A100.37,100.37,0,0,1,141,50.43a83.31,83.31,0,0,1-19.66-30.19l24.58,7A102.27,102.27,0,0,1,128.74,14.2,89.72,89.72,0,0,1,115.23-1.91h-27a78.76,78.76,0,0,1-7.38,21.14A90.65,90.65,0,0,1,62.44,43.38L81.79,33.32a28.74,28.74,0,0,1-2.2,8c-6,13.7-21.44,20.54-20.88,21.13.41.45,8.69-3.83,16-8a63.92,63.92,0,0,1,7.37-4c5.89-2.56,13.64-4.5,14.75-3,.19.25.1.5,0,1V61.5c-.16,3.12-5.15,7.93-27.63,15.09C54,61.6,51.54,57.32,52.56,56.47c.55-.46,1.92.18,4.92,0a19.38,19.38,0,0,0,7.37-2,32.67,32.67,0,0,1-12.29-3A25.08,25.08,0,0,1,40.28,39.36L30.47,17.22a40,40,0,0,1-4.94,27.17A51,51,0,0,1,8.6,61.5l16-5A54.81,54.81,0,0,1,18.16,77.6,64.55,64.55,0,0,1,4.64,94.71l16.58-7c2.73,5.44,1.23,8.92.63,10.07-1.55,2.94-4.68,4.76-8.61,7-5.28,3.08-8.82,3.83-8.6,5,.25,1.35,4.88,1.87,6.15,2,5.44.61,7.24-.89,8.6,0,3.31,2.18-3.45,13.91-8.6,21.13A93,93,0,0,1,3.41,142l16.12-13.08-21,42.47Z"/><rect class="cls-3" x="1736.49" y="48.75" width="35.14" height="86.71"/><rect class="cls-3" x="1083.29" y="1.54" width="38.78" height="102.13"/><rect class="cls-3" x="1159.64" y="0.58" width="35.14" height="113.69"/><rect class="cls-3" x="1231.14" y="0.58" width="35.14" height="113.69"/><rect class="cls-3" x="1301.43" y="2.51" width="35.14" height="113.69"/><rect class="cls-3" x="1381.41" y="1.54" width="35.14" height="113.69"/><rect class="cls-3" x="1455.33" y="2.51" width="35.14" height="113.69"/><rect class="cls-3" x="1530.47" y="0.58" width="35.14" height="113.69"/><rect class="cls-3" x="1601.97" y="7.32" width="35.14" height="113.69"/><rect class="cls-3" x="1669.83" y="14.07" width="35.14" height="113.69"/><rect class="cls-3" x="1010.58" y="20.81" width="35.14" height="86.71"/><rect class="cls-3" x="941.5" y="33.34" width="35.14" height="86.71"/><path class="cls-4" d="M1428.6,44.13c-.31,2,1.68,2.85,3.38,2.28a3.29,3.29,0,0,0,1.81-1.63,5.09,5.09,0,0,0,.37-.59c0-.2-1-.25-1.12-.61a1,1,0,0,1,.26-.86l.67-.39.81.06a1.51,1.51,0,0,0-2,.54,1.53,1.53,0,0,0,.53,2,1.75,1.75,0,0,0,2.7-1.09,2.17,2.17,0,0,0-1.45-2.58,2.88,2.88,0,0,0-3.06,1.52c-.14.22-.28.46-.4.69s-.18.14,0,0-.36.23-.15,0c-.19,0-.2,0,0,0a1.08,1.08,0,0,1,.48.37l.2.76,0,.18a1.53,1.53,0,0,0-1-1.84,1.51,1.51,0,0,0-1.85,1.05Z"/><path class="cls-4" d="M1655.69,121.8c-.18-4.31-6.85-5.62-9.55-2.86-1.65,1.68-1.1,4.12.51,5.58a6,6,0,0,0,6.64,1c1.74-.84.22-3.43-1.51-2.59a2.92,2.92,0,0,1-2.94-.49c-.61-.48-1.06-1.15-.27-1.65s4.06-.45,4.12,1c.08,1.92,3.08,1.93,3,0Z"/><path class="cls-4" d="M1696.44,203.79a4.21,4.21,0,0,0-5.3-2.33,1.53,1.53,0,0,0-1,1.84,1.51,1.51,0,0,0,1.84,1,1.57,1.57,0,0,1,1.13,0,2.29,2.29,0,0,1,.41.21s.11.17.07.06a1.53,1.53,0,0,0,1.84,1,1.5,1.5,0,0,0,1-1.84Z"/><path class="cls-4" d="M1855.17,77.92c.23.39-.14-.22,0,0s0,0,0,0,0-.07-.05.07c.09-.1.08-.09,0,0s-.35.28-.18.16a1.24,1.24,0,0,1-1.36.2,1.5,1.5,0,1,0-.8,2.89c2.76,1,6.74-1.82,5-4.84-.94-1.68-3.54-.17-2.59,1.51Z"/><path class="cls-4" d="M669.69,31.54,667.94,33a1.51,1.51,0,0,0,0,2.12,1.54,1.54,0,0,0,2.12,0l1.75-1.49a1.51,1.51,0,0,0,0-2.12,1.54,1.54,0,0,0-2.12,0Z"/><path class="cls-4" d="M231.92,11.16l-1.76,1.45a1.52,1.52,0,0,0,0,2.12,1.55,1.55,0,0,0,2.13,0L234,13.28a1.5,1.5,0,0,0,0-2.12,1.53,1.53,0,0,0-2.12,0Z"/><path class="cls-4" d="M142.26,31.43l-1.76,1.45A1.5,1.5,0,0,0,142.62,35l1.76-1.45a1.51,1.51,0,0,0,0-2.12,1.53,1.53,0,0,0-2.12,0Z"/><path class="cls-4" d="M71.24,23.85a1.5,1.5,0,0,0,0-3,1.5,1.5,0,0,0,0,3Z"/><path class="cls-4" d="M977.25,277.52c2.3-2.15-.18-5.65-2.93-5.4a3.5,3.5,0,0,0-3,2.32,3,3,0,0,0,1.25,3.48,1.51,1.51,0,0,0,2.05-.54,1.53,1.53,0,0,0-.54-2.05c.12.11.12.1,0,0l.08.11c-.08-.15-.08-.14,0,0l0-.11c.15.29-.07.1,0-.06,0,.19,0,.22,0,.11s0-.08,0,.08c0-.06.23-.37,0-.12,0,0,.32-.29.07-.11,0,0,.39-.19.12-.09.05,0,.43-.08.16-.06.08,0,.46.06.19,0,.08,0,.41.19.17,0,.07,0,.34.28.14.08.06.06.25.35.1.1l.07.1c.08.16.07.15,0,0l0,.12c0-.19,0-.22,0-.11l0-.06c.05-.11,0-.09,0,0,.11-.14.1-.14,0,0-1.42,1.32.71,3.44,2.12,2.13Z"/><path class="cls-4" d="M1201.46,94a1.5,1.5,0,0,0,0-3,1.5,1.5,0,0,0,0,3Z"/><path class="cls-4" d="M1222.46,14.16a1.5,1.5,0,0,0,0-3,1.5,1.5,0,0,0,0,3Z"/><path class="cls-4" d="M1078.57,25.23a1.5,1.5,0,0,0,0-3,1.5,1.5,0,0,0,0,3Z"/><path class="cls-4" d="M569.84,19.85l-1.75-1.45a1.55,1.55,0,0,0-2.13,0,1.52,1.52,0,0,0,0,2.12L567.72,22a1.55,1.55,0,0,0,2.12,0,1.51,1.51,0,0,0,0-2.12Z"/><path class="cls-4" d="M443.7,35.58V34.09a1.51,1.51,0,0,0-1.5-1.5,1.53,1.53,0,0,0-1.5,1.5v1.49a1.5,1.5,0,0,0,3,0Z"/><path class="cls-4" d="M1729.63,168.38l-1.45,1.39a1.5,1.5,0,0,0,2.12,2.13l1.45-1.4a1.53,1.53,0,0,0,0-2.12,1.51,1.51,0,0,0-2.12,0Z"/><path class="cls-4" d="M1742.22,45.05v1.4a1.5,1.5,0,1,0,3,0v-1.4a1.5,1.5,0,1,0-3,0Z"/><path class="cls-4" d="M1802.38,28.25v1.4a1.5,1.5,0,1,0,3,0v-1.4a1.5,1.5,0,0,0-3,0Z"/><path class="cls-4" d="M1703.77,38.13a1.5,1.5,0,0,0,0-3,1.5,1.5,0,0,0,0,3Z"/><path class="cls-4" d="M1370.06,209.88a1.5,1.5,0,0,0,0-3,1.5,1.5,0,0,0,0,3Z"/><path class="cls-4" d="M1424.51,311.81a1.5,1.5,0,0,0,0-3,1.5,1.5,0,0,0,0,3Z"/><path class="cls-4" d="M288.18,33l-1.76,1.48a1.51,1.51,0,1,0,2.13,2.13l1.75-1.49a1.51,1.51,0,0,0,0-2.12,1.53,1.53,0,0,0-2.12,0Z"/><path class="cls-4" d="M19.9,17.73c.14-3.5-6.37-3.51-6.24,0,.07,1.93,3.07,1.94,3,0,0-.26-.18.44-.08.24,0,0-.18.27-.06.1,0,.05-.24.19-.07.08s0,0-.08,0a1.17,1.17,0,0,0,.2-.06c.16-.08.05,0-.07,0H17c.2,0-.25-.07-.07,0l.21,0c.16,0-.19-.13-.07,0s.05,0,.05,0L17,18c-.16-.21,0,.16-.06-.1,0-.07-.08-.45-.08-.21a1.51,1.51,0,0,0,1.5,1.5,1.53,1.53,0,0,0,1.5-1.5Z"/><path class="cls-4" d="M1748.4,117.72l0-2.79a1.5,1.5,0,0,0-3,0l0,2.79a1.5,1.5,0,0,0,3,0Z"/><path class="cls-4" d="M1339.73,73.77a1.5,1.5,0,0,0,0-3,1.5,1.5,0,0,0,0,3Z"/><path class="cls-4" d="M1707.28,82.81a1.5,1.5,0,0,0,0-3,1.5,1.5,0,0,0,0,3Z"/><path class="cls-4" d="M1712.81,53.39v1.39a1.5,1.5,0,0,0,3,0V53.39a1.5,1.5,0,0,0-3,0Z"/><path class="cls-4" d="M1765.24,63.26a1.5,1.5,0,0,0,0-3,1.5,1.5,0,0,0,0,3Z"/><path class="cls-4" d="M955.57,15.79a1.5,1.5,0,0,0,0-3,1.5,1.5,0,0,0,0,3Z"/><path class="cls-4" d="M839.27,12.22V10.77a1.5,1.5,0,1,0-3,0v1.45a1.5,1.5,0,1,0,3,0Z"/><path class="cls-4" d="M869.42,29.54h-1.76a1.5,1.5,0,0,0,0,3h1.76a1.51,1.51,0,0,0,1.5-1.5,1.53,1.53,0,0,0-1.5-1.5Z"/><path class="cls-4" d="M1730.69,298.12a1.5,1.5,0,0,0,0-3,1.5,1.5,0,0,0,0,3Z"/><rect class="cls-5" x="823.16" y="138.5" width="1094.87" height="946.19"/><rect class="cls-6" x="742.76" y="83.05" width="163.6" height="1001.64"/><rect class="cls-6" x="1807.7" y="68.06" width="111.55" height="1016.63"/><path class="cls-7" d="M370.71,233.73q103.19-25.56,206-52,83.13-21.39,166-43.36L936.66,70,1122.07,1.54,950,.58,708.82,88.25,305.27,150.88Z"/><rect class="cls-8" x="906.36" y="103.67" width="900.42" height="34.68"/><path class="cls-9" d="M1918.27,131.61c.17.69.48,1.69,0,1.93s-1.12-.25-2.43-1-2.48-1.21-3.63-1.93c-3.29-2-5.68-2.87-12.21-6.57-3.68-2.09-6.14-3.73-7.06-4.22-8.79-4.7-19.61-8.31-58.94-23.87-36.73-14.53-29.13-12.07-62.3-25.18C1698.37,41.8,1610.78,9.68,1587.1,1l172.09.31C1776,7.47,1789.8,12,1799.5,15c11.92,3.73,15.17,4.47,24.24,7.71,13.36,4.76,14.82,6.19,31.51,12.52,18.09,6.87,16.56,5.26,26.66,9.64,0,0,13.48,5.84,24.24,9.63,3.41,1.2,3.48.9,6.06,1.93a9.13,9.13,0,0,0,3.63,1c1.31,0,2-.34,2.43,0s.12,1.07,0,2.89v65.52C1918.27,127.75,1917.81,129.72,1918.27,131.61Z"/><rect class="cls-10" x="958.47" y="149.03" width="785.29" height="935.66"/><path class="cls-11" d="M827,107a1695.55,1695.55,0,0,0,396.28,74.19s182.77,11.85,392.65-17.35h0c68.55-9.53,110.81-18.22,124.82-21.19a1280.75,1280.75,0,0,0,126-33.72l26.66,8.67a1761.93,1761.93,0,0,1-269,62.62c-356.93,54.18-659.94-10.21-832.55-60.69Z"/><ellipse class="cls-12" cx="889.39" cy="153.77" rx="21.21" ry="16.86"/><ellipse class="cls-12" cx="1834.65" cy="153.77" rx="21.21" ry="16.86"/><ellipse class="cls-12" cx="1714.67" cy="177.85" rx="21.21" ry="16.86"/><ellipse class="cls-12" cx="1406.86" cy="212.54" rx="21.21" ry="16.86"/><ellipse class="cls-12" cx="1061.48" cy="197.12" rx="21.21" ry="16.86"/><path class="cls-11" d="M877.27,173.13l-17,31.7,10.91,7.71H890.6s17,7.71,17,5.3,3.64-10.12,3.64-10.12l-12.12-33.19Z"/><path class="cls-11" d="M1046.94,213.5l-18.18,27.94,12.12,6.75,6.06-18.31s-4.85,20.23,0,18.31,15.75,0,15.75,0V226L1076,254V229.88L1084.5,254l19.39-5.78L1076,215S1048.15,218.32,1046.94,213.5Z"/><path class="cls-11" d="M1391.71,229.4S1379,262.64,1379,258.78s12.12,0,12.12,0l8.48-19.26s0,19.26,1.21,19.26,8.48-14.45,8.48-14.45l8.49,21.2,9.69-6.75-9.69-16.37,19.39,16.37-19.39-29.86h-18.18Z"/><path class="cls-11" d="M1701,194.21l-7.31,32.84s12.39,8.64,10.42,4.63,2.76-24,2.76-24l6.78,25.65,11.42-4,1.88-16.31,5.36,16.83s11.52,5.68,10.86.79S1729,194.8,1729,194.8Z"/><path class="cls-11" d="M1825,170.68l-20.6,33.19,9.7,8.67,10.9-25v35.65s21.82,1.92,21.82,0V186.53h-6.06l15.75,31.79,12.12-5.78-15.75-32.76,21.81,17.34-26.29-30.49Z"/><path class="cls-13" d="M136,116.67a78.15,78.15,0,0,1-21.84,46.17A91,91,0,0,1,96,177.2c1.6.3,10.8,1.88,19.41-3.08a21.5,21.5,0,0,0,9.7-11.28,99.28,99.28,0,0,1-8.49,29.75,107.27,107.27,0,0,1-15.77,24.62,121.7,121.7,0,0,1-35.18,27.7,234,234,0,0,0,40-18.47A216.2,216.2,0,0,0,129.92,210a158,158,0,0,1-19.41,29.75A176.61,176.61,0,0,1,79,269.53a110.75,110.75,0,0,0,31.54-11.28c9.18-5.05,21.48-13.8,21.85-13.42,0,0,0,.07,0,.08-1,1.78,1.83,25.55,2.43,33.86.1,1.45.06,6.1,0,15.39-.1,12.93-.36,14.56-1.22,16.41-1.33,2.87-5.57,9.39-21.83,13.34C97.41,330.63,84.67,336.77,85,337.22a.12.12,0,0,0,.09,0c2.42,0,44.88-15.39,44.88-15.39l3.64-1V339.3L65.63,386.49,54.71,405l10.92,4.1,4.85-14.36L74.12,405,79,390.6l9.71,2-6.07-7.18,42.46-27.71L136,351.61l1.21,159-95.83,9.23H2.55v14.37c93.91,3.88,167,2.57,217.75.51,0,0,180.53-7.33,225.22-.46a41.63,41.63,0,0,0,8.91.46,42.31,42.31,0,0,0,7.28-1q-1.53-6.4-3-12.82c-1.61-1.31-3.67-3.27-3-4.62,1.08-2.26,8.5-.11,10.92-3.08s-1.44-9.59-2.43-11.28c-1.63-2.8-3.06-3.92-2.42-5.13,1.08-2,6.15-.58,8.49-3.08,1.76-1.89.79-4.79,0-7.18-.29-.88-2.8-8.4-8.49-9.23-3.6-.53-6,2-7.28,1-1.78-1.32,3.35-6,1.21-10.26-1.16-2.29-4.23-4-7.28-4.1A9.86,9.86,0,0,0,442.3,466c-4.16,3-5.22,8.08-4.86,8.21s2.52-2.37,2.43-5.13a7.15,7.15,0,0,0-4.85-6.16,9.81,9.81,0,0,0-6.07,0c-3.79,1.27-4.26,4.31-6.06,4.11s-3.39-3.18-2.43-5.13,3.79-1.43,4.85-3.08c1.71-2.64-2.68-8.46-8.49-11.29-3.75-1.82-10.53-3.58-14.56-1-3.31,2.11-3.26,6.2-4.85,6.15s-1.23-3.39-3.64-5.13c-5-3.62-20.18.76-21.83,7.19-1.2,4.65,5,9.14,3.64,10.26s-7.43-5-14.56-4.11c-5.82.7-11.36,6-10.92,10.26s6.95,6.69,6.07,8.21-8.14-1.69-12.14,1c-3.36,2.29-3.55,8.28-1.21,12.32s6.34,4.66,6.07,7.18-4.58,2.63-6.07,6.15a7.24,7.24,0,0,0,2.43,8.21,10.3,10.3,0,0,0,8.49,2c4.92-1.18,5.7-6.38,8.49-6.15,2.45.19,1.93,4.2,6.07,6.15,3.43,1.63,6.36.07,8.49,2.05,1.09,1,1.83,2.82,1.21,4.11-1.47,3.08-10.37,2.5-24.26,2.05-6.33-.2-15.69-.45-27.29-.51L324,402.91a120.82,120.82,0,0,0,34,21.54c19.55,8.31,40.71,11.56,41.24,10.26.26-.63-4.37-2.19-10.92-5.13-3.19-1.43-22.06-10.06-38.82-24.62A121.7,121.7,0,0,1,324,374.18l46.1,11.29a118.3,118.3,0,0,1-35.18-21.55,99.06,99.06,0,0,1-19.41-23.6,117.91,117.91,0,0,0,24.26,11.29c19.73,6.61,39.61,7.65,40,6.15.28-1-8.5-2.19-21.83-8.2-9.05-4.08-21.22-9.57-30.33-20.52a50.51,50.51,0,0,1-10.92-23.6l49.74,13.34c-29.51-9.3-39.83-21.06-43.67-26.68-2.29-3.33-7.12-11.55-10.92-18.46s-6.61-12.52-8.49-16.42c20.81,11.57,37.9,21,38,20.83a2.7,2.7,0,0,0-.43-.31c-2.06-1.32-22-15.6-36.39-41a119.8,119.8,0,0,1-13.34-35.9c.1,9.64-1.06,22-6.07,33.85a38.49,38.49,0,0,1-6.07,10.26,46,46,0,0,1-17,12.31L284,249c1.63,7.85,2.2,18.13-2.43,28.72-9.87,22.58-37.61,33.38-36.39,34.88.82,1,13.19-4.22,24.26-11.28a123.74,123.74,0,0,0,20.62-16.42,46.79,46.79,0,0,1,0,25.65c-4.31,14.81-15.29,24.16-25.47,32.83a135.82,135.82,0,0,1-24.26,16.42c8.47-1,23.86-3.81,38.81-13.34a75.42,75.42,0,0,0,15.77-13.34q.62,9.24,1.22,18.47-15.4,13.15-32.76,26.67-11,8.55-21.83,16.42l55.8-16.42c-3.89,6.25-8.31,12.78-13.34,19.5a289.83,289.83,0,0,1-26.69,30.77l48.52-25.64,3.64,120c-41.42,2.8-71.83,4-78.24,3.59-1.42-.09-3.89-.42-8.49-1-6.44-.85-7.62-1.17-8.5-2.06-2.66-2.7-.07-8.21,0-8.2s-1.07,8.18-2.42,8.2c-1.08,0-2.21-5.17-2.43-5.13s.89,3.79,0,4.11c-.59.21-1.59-1.27-2.43-1s-.5,1.88-1.21,2.05-1.62-1.05-2.42-2.05c-1.53-1.89-1.35-2.44-2.43-3.08s-1.59-.33-2.43-1c-1.07-.89-1-2.07-1.21-2s-.49,2.7,0,6.15c.26,1.81.56,2.78,0,3.08a2.13,2.13,0,0,1-2.43-3.08c1.25-3.46-4.06-9.52-4.85-9.23s3.48,5.36,1.21,8.21c-3.21,4-18.65,2.53-22.44-3.59-2.29-3.71,0-8.62-.6-8.72s-2.92,7.3-3.64,7.18.29-7.16,0-7.18-.86,6.05-2.43,6.15c-1.24.08-3-3.58-3-3.59l-3.64-159L174.81,365l18.19,4.1-36.39-24.62V292.1L193,326l14.56,7.18A254.27,254.27,0,0,1,176,296.21a236,236,0,0,1-18.2-30.78l51,10.26A118.65,118.65,0,0,1,176,257.22c-5.91-4.76-21.63-17.45-18.2-22.57,2.5-3.72,57,6.16,57,6.16l27.9-6.16c-5.68.69-37.55,4.1-63.08-14.36A64,64,0,0,1,159,195.67l51,5.13c-7-1.44-25.3-6-40-20.52a60.73,60.73,0,0,1-15.77-25.65c14.9,5.87,29.17,11.45,29.23,11.35l-.12-.07c-14-6.72-26.69-25.64-26.69-25.64-7.89-11.91-12-24-12.22-24,0,0,.07.32.09.35C146.91,121.8,165.1,128,165.1,128a146.13,146.13,0,0,1-15.77-22.57A135.06,135.06,0,0,1,137.2,76.66a66.52,66.52,0,0,1-6.06,30.78,77.17,77.17,0,0,1-18.2,24.62,70.59,70.59,0,0,0,13.34-7.18A63.71,63.71,0,0,0,136,116.67Z"/><ellipse class="cls-14" cx="1357.46" cy="364.26" rx="449.18" ry="430.26"/></svg>
