<svg id="Lag_1" data-name="Lag 1" xmlns="http://www.w3.org/2000/svg" width="321" height="75" viewBox="0 0 321 75"><defs><style>.cls-1{fill:#ffffe5;}.cls-2{fill:#ed4d61;}</style></defs><title>Tegnebræt 10</title><rect class="cls-1" x="4" y="6" width="314" height="65" rx="12" ry="12"/><circle class="cls-2" cx="31.5" cy="31.5" r="18.5"/><circle class="cls-2" cx="64.5" cy="31.5" r="18.5"/><path class="cls-2" d="M17,43.93,46,66h4L79,43.93a58.41,58.41,0,0,0-62.08,0Z"/><circle class="cls-2" cx="107.5" cy="31.5" r="18.5"/><circle class="cls-2" cx="140.5" cy="31.5" r="18.5"/><path class="cls-2" d="M93,43.93,122,66h4l29-22.07a58.41,58.41,0,0,0-62.08,0Z"/><circle class="cls-2" cx="182.5" cy="31.5" r="18.5"/><circle class="cls-2" cx="215.5" cy="31.5" r="18.5"/><path class="cls-2" d="M168,43.93,197,66h4l29-22.07a58.41,58.41,0,0,0-62.08,0Z"/><circle class="cls-2" cx="258.5" cy="31.5" r="18.5"/><circle class="cls-2" cx="291.5" cy="31.5" r="18.5"/><path class="cls-2" d="M244,43.93,273,66h4l29-22.07a58.41,58.41,0,0,0-62.08,0Z"/></svg>
