<svg id="Lag_1" data-name="Lag 1" xmlns="http://www.w3.org/2000/svg" xmlns:xlink="http://www.w3.org/1999/xlink" width="204" height="130" viewBox="0 0 204 130"><defs><style>.cls-1{fill:url(#Ikke-navngivet_forløb_36);}.cls-2{fill:#ed1c24;}.cls-3{fill:#c1272d;}.cls-4{fill:#fff;}</style><linearGradient id="Ikke-navngivet_forløb_36" x1="6" y1="65" x2="129" y2="65" gradientUnits="userSpaceOnUse"><stop offset="0" stop-color="#fff"/><stop offset="1" stop-color="#ffdd6f"/></linearGradient></defs><title>Tegnebræt 13</title><path class="cls-1" d="M23,108l31,20a73.55,73.55,0,0,1,14-23,75.39,75.39,0,0,1,36-22c3.89-1.54,13.91-6.14,20-17a36.52,36.52,0,0,0,4-11q.5-8,1-16L79,2c1.27,3.7,3.76,12.66,0,22-.48,1.2-2.32,5.53-9,12A76.51,76.51,0,0,1,45,52c-4.93,1.56-21.88,7.6-32,25A54.08,54.08,0,0,0,6,99Z"/><polygon class="cls-2" points="100 30 100 27.67 100 2 103 2 103 24 101.5 27 100 30"/><polygon class="cls-3" points="116 9 103 24 101.93 26.13 100 30 119 12 116 9"/><polygon points="90 30 90 42 101 49 100 53 93 47 88 41 88 30 90 30"/><polygon points="88 46 69 46 69 50 89 48 88 46"/><polygon points="91 50 73 65 77 66 92 52 91 50"/><polygon points="52 69 64 81 62 84 47 66 49 65 52 69"/><polygon points="34 66 64 92 61 94 32 66 34 66"/><path class="cls-4" d="M131.22,53.88h9q3.56.51,3.56,8.13V96.54h4.25l0,10.51-19.93.08V96.5l4.77,0V64.78h-3.28Z"/><path class="cls-4" d="M168.09,54h26.68c3.08.42,4.7,2.48,4.89,6.17l0,40.86c.13,4.17-1.53,6.21-5,6.14l-26.76,0q-5.21.39-4.81-5.86l0-41.06Q162.9,54.43,168.09,54Zm7.82,10.55c-3,0-4.37.73-4.11,2.26l0,27.62q.58,2.65,4.33,2.27h11.37c2.32.36,3.51-.45,3.59-2.43l0-27.22c.18-1.69-1.3-2.53-4.45-2.5Zm5.78,8q5.07-.87,4.33,8.36.75,9.48-4.33,8.35-5,.63-4.34-8.35Q176.84,71.54,181.69,72.52Z"/></svg>
