<svg id="Lag_1" data-name="Lag 1" xmlns="http://www.w3.org/2000/svg" width="261" height="60" viewBox="0 0 261 60"><defs><style>.cls-1{fill:#fbe598;}</style></defs><title>Tegnebræt 23</title><path class="cls-1" d="M10.78,7,32.52,7a6,6,0,0,1,4.58,4,16.94,16.94,0,0,1,1,5.39l-7.67,1.52q0-2.76-5.19-2.34h-6l18.43,18q2,2.64.52,8.88-1.52,4-7.53,4.51l-14.79,0a7.34,7.34,0,0,1-4.07-3.26,19.83,19.83,0,0,1-2.32-6l8-2.72q.32,3.34,2.69,3.22l7.83,0q1.79-.41-.59-2.58L10.31,18.85l4.22-3.34H9.14Z"/><path class="cls-1" d="M42.3,7.3h29v8.35l-16.73,0v4.66l13.24,0-.93,8.06H54.55V38.77l17.23-2,2.46,8.84L43.71,49.46l-.94-8.85L46.23,40V28.48H42.6L43.42,21l2.87,0,0-3.4L51,15.8l-8.68,0Z"/><path class="cls-1" d="M76.7,7.07h26.6l-1.08,8.79H92.75v19q-.5,4.43,3,5.25L93.6,48.38a8.9,8.9,0,0,1-6.78-2.61A10,10,0,0,1,84,38.56V17.62l3.78-1.82-11.92,0Z"/><path class="cls-1" d="M106.44,7.07H133L132,15.86h-9.46v19c-.33,3,.66,4.7,3,5.25l-2.14,8.26a8.87,8.87,0,0,1-6.78-2.61,10,10,0,0,1-2.86-7.21V17.62l3.78-1.82-11.92,0Z"/><path class="cls-1" d="M145.4,6.86l0,40h-8.82l0-38.67Z"/><path class="cls-1" d="M149,7.16h8.5l0,6.32,1-2.46a27.38,27.38,0,0,1,8.27,3.36,23.18,23.18,0,0,1,5.55,6.08l.41,1.17,0-14.41h8.43V40.09a6.59,6.59,0,0,1-1.95,4.79c-1.43,1.69-4.38,2.41-8.83,2.18V38.77q2.92-.24,2.46-3.78a11.71,11.71,0,0,0-.86-4.32c-.6-1.56-2.45-3.63-5.57-6.21a24.58,24.58,0,0,0-8.89-5.06V47.06H149Z"/><path class="cls-1" d="M187.06,7.3h30.85l-1.46,8.79H195.38V34.7q-.31,4,4.42,3.42h10.49l0-6.88-7,0V23l15.68,0V46.91l0,2.29-8.5,1.64v-7l-3.25,3-12.57,0q-4.25-.61-6.09-3.24c-1.23-1.74-1.86-4.26-1.88-7.54V18.67l5.16-2.58-7.68,0Z"/><path class="cls-1" d="M223.51,7l21.73,0a6,6,0,0,1,4.59,4,17.22,17.22,0,0,1,1,5.39l-7.68,1.52q0-2.76-5.18-2.34h-6l18.43,18q2.06,2.64.53,8.88-1.53,4-7.53,4.51l-14.8,0a7.38,7.38,0,0,1-4.07-3.26,19.83,19.83,0,0,1-2.31-6l8-2.72q.33,3.34,2.7,3.22l7.82,0q1.78-.41-.58-2.58L223,18.85l4.22-3.34h-5.39Z"/></svg>
