<svg id="Lag_1" data-name="Lag 1" xmlns="http://www.w3.org/2000/svg" xmlns:xlink="http://www.w3.org/1999/xlink" width="1920" height="1080" viewBox="0 0 1920 1080"><defs><style>.cls-1{fill:url(#Ikke-navngivet_forløb_70);}.cls-2,.cls-3,.cls-4{fill:none;stroke-miterlimit:10;stroke-width:10px;}.cls-2{stroke:#ff3230;}.cls-3{stroke:#ff6268;}.cls-4{stroke:#ff4d54;}.cls-5{fill:url(#Ikke-navngivet_forløb_110);}.cls-6{fill:#f8ffe5;}.cls-7{fill:#c1272d;}.cls-8{fill:#fcee21;}.cls-9{fill:#ff6;}.cls-10{fill:#9f0005;}.cls-11{fill:#ff3230;}.cls-12{fill:#ffffc1;}</style><linearGradient id="Ikke-navngivet_forløb_70" y1="541" x2="1920" y2="541" gradientUnits="userSpaceOnUse"><stop offset="0" stop-color="#840018"/><stop offset="0.17" stop-color="#b20002"/><stop offset="0.53" stop-color="#ff3f4f" stop-opacity="0.7"/><stop offset="0.83" stop-color="#d90002"/><stop offset="1" stop-color="#c10019"/></linearGradient><linearGradient id="Ikke-navngivet_forløb_110" x1="426.88" y1="331.21" x2="1365" y2="331.21" gradientUnits="userSpaceOnUse"><stop offset="0" stop-color="#e9bd8e"/><stop offset="0.08" stop-color="#f5f7cf"/><stop offset="0.15" stop-color="#fffee9"/><stop offset="1" stop-color="#fff7cb"/></linearGradient></defs><title>Tegnebræt 1</title><rect class="cls-1" y="1" width="1920" height="1080"/><line class="cls-2" x1="1764" y1="9" x2="1772" y2="1083"/><line class="cls-3" x1="1581" y1="6" x2="1599" y2="1080"/><line class="cls-2" x1="1502.5" y1="1086.03" x2="1502.5" y2="5.97"/><line class="cls-4" x1="719" y1="-0.01" x2="719" y2="1079.01"/><line class="cls-2" x1="183" x2="191" y2="1080"/><line class="cls-2" x1="83" y1="1" x2="91" y2="1079"/><path class="cls-5" d="M1353.63,525.52c-44,10.86-90.77,20.23-140.23,27.34-214,30.77-402.66,8.49-548.59-25.39-90.38-25.31-135-9.73-159.18,9.77-17.47,14.11-35.33,38.88-48.43,34.17-11.23-4-11.05-31.59-11.37-38.08q-9.48-189.93-18.95-379.85a233.21,233.21,0,0,1,59.69-41C566.33,74.55,644,95.23,670.5,103.68,769,122.16,848.92,126,902.63,126.14c77.83.27,123.51-6.93,307.93-20.51,61.52-4.53,111.57-7.78,143.07-9.76a11.42,11.42,0,0,1,8,3.44,11.86,11.86,0,0,1,3.34,8.28V513.8Z"/><path class="cls-6" d="M1359,96q35,33.54,70,67,21.48,20.5,43,41a1202.89,1202.89,0,0,0-9,142c-.13,31.7,1,61.76,3,90a238.09,238.09,0,0,0-113,95c-4.48-78.72-6.27-163.28-4-253C1350.61,214.45,1354.11,153.7,1359,96Z"/><path d="M544.4,155.89l30.06,1.41L571.09,227l17.2,1-4,23.28-13.47-.54-.41,8.69,54.06,2.43-4.58,30.49-93.21-4.57,6-29.93,6.37.3.41-8.68-9.92-.47,3.75-23.68,7.7.27Z"/><path d="M673.67,160.68q-8.19,51-4.8,68.7T681,257.62q8.73,10.58,41.47,6.83l4.59-99.9,29.27,3-6,127.79-29.49,1.45.76-16.09-6.1,17.4-6.44,1.07q-28.47-.84-42.6-9.72T644.08,255.1q-8.24-25.51-4.3-72.74l2.57-18Z"/><path d="M857,171.14q26.63,7.41,26.73,39.87L857,209.75q.07-10.26-13.23-9.9l-36-1.69q-12.23,22.69-13.34,34.56a36.6,36.6,0,0,0,5.33,22.69q6.44,10.82,14.38,15.63t22.27,4.13q14.34-.71,27.25-16.52l17.1,22.61q-16.48,14-26.53,18.45T828,303.62a67,67,0,0,1-29.22-7.44q-13.08-6.87-23.41-24.31t-8.11-39.05q2.22-21.6,7.17-27.53l20.55-7.73-24.09-1.13,2.06-9.19,2.74-8.77,5-10.91Z"/><path d="M979.11,173.54l20,21.18-47,41.5q20.8,40.75,27.18,42.23t15.62-5.32l9.8,26.75q-11.57,10.9-21.58,11.46a45.85,45.85,0,0,1-19.88-3.43q-9.85-4-34.68-54.22l-6.48,6.14-2.21,47-28.84-1.35,6.22-132.76L926,174.08,923.88,222Z"/><path d="M1034.88,179.48l35,74.48q11-9.75,15.91-26.67T1090,186l28.09,2.39q-2.94,51.67-14.88,71.7a160.39,160.39,0,0,1-28.75,35.6,201.87,201.87,0,0,1-40,28.38L1023.63,296l27-19.27-38.53-80.31Z"/><circle class="cls-7" cx="1428.5" cy="313.5" r="16.5"/><path class="cls-8" d="M1421.92,299.07c0,11.46,59.08-29.82,59.08-39h0l12.92,18.34L1431.15,322Z"/><polygon class="cls-8" points="1431 327 1438.05 310.93 1486 302 1486 327 1431 327"/><path d="M825.07,366.31q26.22,5,29.23,37.31l-25.86,1.15q-.84-10.23-13.58-8.68l-34.73,1.54q-9.71,23.7-9.71,35.62a37.75,37.75,0,0,0,7.14,22.12q7.16,10.2,15.2,14.28t21.75,2.11q13.69-2,24.67-18.88l18.43,21q-14.55,15.42-23.8,20.76T809,500.85a62.57,62.57,0,0,1-28.71-4.79q-13.15-5.67-24.64-22.12t-11.27-38.16q.2-21.7,4.42-28l19-9.55-23.22,1,1.15-9.34,1.84-9,3.8-11.32Z"/><path d="M864.24,364.66l29.47-1.31,2,45.27,42.91-2.2-2-44.59,29.45-1.5,2,45.95,5.07-.23,3.53,26.73-7.41.33L971.25,476q-2.54,8.93-6.8,12t-13.51,5a117.33,117.33,0,0,1-18.62,2.34L931,469.61q9-1,10.8-7.9l-1.22-27.22L904.76,436l-8.36-12,3.1,69.75-29,6.28Z"/><path d="M1014.68,356.9l5.83,133.27-29.37,1.3L985.32,362.7Z"/><path d="M1075.41,345.5l30.84-1.08.43,9.56,33.07-1.47q12.18,1.32,14,12.87l3.74,88.49q-4.05,21.3-12.76,27.4t-21.9,6.7l-1.31-29.57q8,.33,5-38l-1.67-37.56-16.58.74,4.37,98.34-31.17,7L1077,384.92l-12.88.57,4.45,100-31.24,5.4-4.47-98.43,10.35-6.82-13.56.6,6.82-29.14,39.41-1.75Z"/><path d="M1168.4,351.53l96.48-4.29,1.24,27.8-55.7,2.58.69,15.51,44.1-1.87-1.93,27-41,1.82,1.54,34.44,57.07-9.18,9.5,29.1-101.09,17.3-4.43-29.33,11.43-2.46-1.71-38.44-12.1.54,1.62-25.19,9.55-.53-.6-11.31,15.45-6.45-28.87,1.38Z"/><path class="cls-8" d="M1467.3,249.38,1731,249c55.16,4.31,96.54-30,99-65,2.2-31.21-27.17-55-31-58L1683,69c-8.12-1.16-19.44-2.64-33-4-26.25-2.63-52.11-3.89-85-4-37.79-.13-54.16,1.37-80,2-55,1.35-78.11-3.06-133-6-17.11-.92-19.06-.71-158,0-142,.73-182.75.74-241-1-34.73-1-32.8-1.41-59-2-93.33-2.09-161.92,1.7-187,3-169.48,8.78-339.34,7.1-509,11a220.27,220.27,0,0,0-72,49C53.55,191.66,61.15,294.16,63,314a185,185,0,0,0,56,139,674.17,674.17,0,0,0,97,92,674.26,674.26,0,0,0,92,60c33.06,11.14,80.33,26,138,40.5,17.5,4.39,34,8.26,49.64,11.72,46.1,10.17,82.2,16.34,109.36,20.78,121.2,19.79,181.79,29.69,262,36,50.63,4,105.86,6.44,141,8,32.89,1.46,60.4,2.4,80,3l393-24c41.83-1.75,79.69-3.43,115-5,22-1,33.48-1.53,50-4,26.3-3.94,32.65-7.86,52-9,19.74-1.16,36.36-2.14,53,6,30.65,15,52.15,56.36,42,91a66,66,0,0,1-15,26l-39,25c-24.69,8.55-51.73,16.76-81,24a930.37,930.37,0,0,1-116,21l-168,8H627L246,894A244.05,244.05,0,0,0,89,936c-36.88,17.1-50.55,49.13-42,66,7.64,15.07,32.39,16.79,36,17a77.18,77.18,0,0,1,31-77,186.4,186.4,0,0,1,101-31c38.56-1,99.18-3.32,177-6,116.84-1,275.66-2.22,465-3,101.33-.42,202.73-5.52,304-2,0,0,316.74,11,476-19,29.82-5.62,51.54-13.74,79-24,39-14.58,56.57-25.41,71-41a127.16,127.16,0,0,0,22-33c2.1-9.17,6.74-35.09-6-63a97.63,97.63,0,0,0-25-33c-37.4-31.68-88.28-21.65-96-20q-187.34,16.07-375,26-132.91,7-266,11c-68.13-.94-124.56-4.61-165-8-77-6.45-132-14.88-237-31-68.09-10.45-110.88-17-154-27a1408.89,1408.89,0,0,1-156-46,452.66,452.66,0,0,1-60-31A461.77,461.77,0,0,1,153,459c-16.3-12.59-43-36.92-61-76-33.39-72.44-11.86-141-6-158,4-9.42,10.27-23.1,19-39,19.82-36.09,36.79-67,69-85,13.54-7.57,24.39-9.85,45-14,27.43-5.52,69.05-10.51,122-4,48.68-1.21,124.22-3.14,216.87-5.66C783.32,71.21,847.07,66.23,950,69q125,3.36,250,6,219,4.62,438,7a352.84,352.84,0,0,1,152,58c4.15,3.26,25.13,20.32,24,42-1.38,26.41-35.29,54.14-83,51a1331,1331,0,0,1-200,3q-30.3-1.83-59-4.89Q1469.65,240.24,1467.3,249.38Z"/><circle class="cls-9" cx="87" cy="1008" r="34"/><path class="cls-10" d="M1827.75,797.74a65.49,65.49,0,0,0,.66-51c-.72-1.76-3.62-1-2.89.8a62.55,62.55,0,0,1-.36,48.72c-.76,1.75,1.82,3.28,2.59,1.51Z"/><path class="cls-10" d="M1843.26,798.4a107.6,107.6,0,0,0,2.28-56.35c-.43-1.88-3.32-1.08-2.89.8a104.51,104.51,0,0,1-2.28,54.75c-.58,1.85,2.31,2.64,2.89.8Z"/><path class="cls-10" d="M1801.78,101.44a72.59,72.59,0,0,1,37.55,46,1.5,1.5,0,0,0,2.89-.8,75.54,75.54,0,0,0-38.92-47.8c-1.72-.86-3.24,1.73-1.52,2.59Z"/><path class="cls-10" d="M1822,98.56a52.37,52.37,0,0,1,26.27,36.92c.34,1.9,3.23,1.1,2.9-.79A55.25,55.25,0,0,0,1823.49,96c-1.69-.94-3.2,1.65-1.51,2.59Z"/><path class="cls-11" d="M253.24,612a359.25,359.25,0,0,1,52.19,19.26c1.74.8,3.26-1.78,1.51-2.59A364.86,364.86,0,0,0,254,609.09a1.51,1.51,0,0,0-.8,2.9Z"/><path class="cls-11" d="M261.12,630.2A144,144,0,0,1,297,638.27c1.81.66,2.6-2.24.79-2.89a147,147,0,0,0-36.68-8.18c-1.93-.18-1.91,2.82,0,3Z"/><path class="cls-11" d="M420.67,452.67c1.84,1.56,4.54,1.27,5.54-1.22.84-2.09-.37-4.45-1.06-6.37-1.42-4-2.9-7.92-4.36-11.87l-16.44-44.77c-.66-1.79-3.56-1-2.89.8l11.4,31.06,5.37,14.62,3,8.22c.45,1.22.91,2.43,1.35,3.65,0-.06,1.21,4.63.19,3.76-1.47-1.24-3.6.87-2.12,2.12Z"/><path class="cls-11" d="M408.14,427.17l-7.44-21c-.64-1.81-3.54-1-2.9.8l7.45,21c.64,1.81,3.54,1,2.89-.8Z"/><path class="cls-11" d="M1489.56,402.1v-45a1.5,1.5,0,0,0-3,0v45a1.5,1.5,0,0,0,3,0Z"/><path class="cls-11" d="M1497.38,400.63a298.13,298.13,0,0,0,1-45c-.1-1.92-3.1-1.94-3,0a298.13,298.13,0,0,1-1,45c-.19,1.92,2.81,1.91,3,0Z"/><path class="cls-11" d="M327.52,943.52a174.64,174.64,0,0,1,56.6-7.49c1.93.06,1.93-2.94,0-3a177,177,0,0,0-57.39,7.6c-1.85.56-1.06,3.46.79,2.89Z"/><path class="cls-11" d="M336.86,932.84a43.94,43.94,0,0,1,29.26-8.77c1.93.11,1.92-2.89,0-3a46.54,46.54,0,0,0-30.77,9.18c-1.53,1.14,0,3.75,1.51,2.59Z"/><path class="cls-12" d="M104,1035a22,22,0,0,1,3-42l54-14q67.19-7.62,139-13,51.58-3.81,101-6l67-6,3,10-56,8,58-5v11s-54,8-52,9,58-5,58-5v11l-8,5h8v14H468s9,8,11,7,0,9,0,9l-15-2.5,16,6.5v7H447l36,3v8s-43-3-41-4,36,7,36,7l-1,6-36-5.67L475,1064l-3,5s-55-11-50-8,44,15,44,15l-2,2-60-8-70-4q-45.86-3.33-95-9-41.85-4.89-81-11Z"/></svg>
