<svg id="Lag_1" data-name="Lag 1" xmlns="http://www.w3.org/2000/svg" width="330" height="320" viewBox="0 0 330 320"><defs><style>.cls-1{fill:#f1ecdf;}.cls-2{fill:#fff;}</style></defs><title>Tegnebræt 8</title><ellipse class="cls-1" cx="165.5" cy="160" rx="158" ry="151.5"/><path d="M44.27,131l32.61,0q5.31,1.31,6.87,5.93a25.71,25.71,0,0,1,1.56,8.08L73.8,147.21q0-4.12-7.78-3.52H57l27.64,27.07q3.08,4,.79,13.32-2.28,6-11.29,6.77l-22.19,0a11.08,11.08,0,0,1-6.11-4.9,29.43,29.43,0,0,1-3.47-9l12-4.09q.48,5,4,4.83l11.73.05q2.68-.61-.88-3.87L43.57,148.7l6.33-5H41.81Z"/><path d="M92,131h39.9l-1.63,13.18H116.12v28.52q-.75,6.64,4.48,7.87L117.4,193a13.37,13.37,0,0,1-10.18-3.91,14.89,14.89,0,0,1-4.28-10.81V146.86l5.67-2.73-17.89,0Z"/><path d="M159.67,126.64l10.81,4.09L169.21,135h17.4l-1.8,13-9.5,0,15.08,40.39-11.65,4-15.47-41.3L146,192l-11.82-3.6,17-40.61-12.43,0,1-12.83H156.2Zm5.58,44.83,6.72,7.38-12.43,12.48L152.77,184Z"/><path d="M195.75,131h37.88q4,.48,5.49,5.14L239,153.84q-1.28,6.12-3.7,8.2a36.51,36.51,0,0,1-8.61,4.81l3.47,5.54a14.7,14.7,0,0,0,10.94,7l-1,13.53-7.07-1.32q-6.9-1.4-14.59-14.41l-2.77-5.27-6.9,3.25,0,15.69-12.31.08V179.25l-4.83-10.33,4.74-3,.09-18.5,6-3.34-9.49,0Zm13.05,13.09v16.92l13.14-5.18q4.78-1.77,4.79-5.67v-6.07Z"/><path d="M245.32,131h39.9l-1.62,13.18H269.4v28.52q-.75,6.64,4.48,7.87L270.68,193a13.37,13.37,0,0,1-10.18-3.91,14.93,14.93,0,0,1-4.28-10.81V146.86l5.67-2.73-17.89,0Z"/><path class="cls-2" d="M63.52,262.74c14.39,4.63,70.9,21,133.8-6.06,70.44-30.29,96.76-92.59,101.65-104.82q.93,20.13,1.88,40.27A94.16,94.16,0,0,1,281,244.51a122.83,122.83,0,0,1-60,51.09c-16.74,6.57-30.49,7.55-42.74,8.43a185.44,185.44,0,0,1-41.08-1.64,187.46,187.46,0,0,1-73.74-39.65Z"/></svg>
