<svg id="Lag_1" data-name="Lag 1" xmlns="http://www.w3.org/2000/svg" width="244" height="130" viewBox="0 0 244 130"><defs><style>.cls-1{fill:#fff1e5;}.cls-2,.cls-5{fill:none;stroke-miterlimit:10;}.cls-2{stroke:#fbb03b;stroke-width:5px;}.cls-3{fill:#ffe6a6;}.cls-4{fill:#ffea3f;}.cls-5{stroke:#ff0;stroke-width:3px;}.cls-6{fill:#ffffe5;}</style></defs><title>Tegnebræt 11</title><path class="cls-1" d="M15.56,17.29C16,31.22,19,49.28,32.21,58.84c12.47,9,24.89,3.84,37.13,12.58C77.35,77.14,85.89,89.27,86,118H15.56c.1-28.73,8.64-40.86,16.65-46.58,12.24-8.74,24.67-3.53,37.13-12.58C82.51,49.28,85.53,31.22,86,17.29Z"/><line class="cls-2" x1="16.15" y1="16.04" x2="16.15" y2="118"/><line class="cls-2" x1="85.35" y1="16.66" x2="85.5" y2="118.5"/><ellipse class="cls-3" cx="50.14" cy="17.29" rx="37.14" ry="6.29"/><ellipse class="cls-4" cx="50.76" cy="52.54" rx="22.66" ry="5.04"/><path class="cls-4" d="M29.36,53.8c3.22,3.5,9.8,9.47,18.89,10.07a22.64,22.64,0,0,0,3,0c.68,0,1.36,0,2.06,0C62,63.45,68.53,57.75,72.16,53.8Z"/><line class="cls-5" x1="50.76" y1="66.39" x2="51.39" y2="117.37"/><rect class="cls-6" x="88" y="36" width="140" height="65"/><path d="M97.91,44h24c2.77.38,4.23,2.23,4.4,5.56l0,36.77q.18,5.63-4.46,5.52l-24.09,0c-3.11.23-4.56-1.53-4.32-5.28l0-36.95Q93.23,44.39,97.91,44Zm7,9.5c-2.69,0-3.93.65-3.69,2l0,24.85q.54,2.4,3.91,2h10.23q3.12.49,3.23-2.18l0-24.5q.24-2.3-4-2.25Zm5.2,7.2q4.58-.77,3.91,7.53.66,8.53-3.91,7.52-4.45.57-3.9-7.52Q105.79,59.79,110.14,60.66Z"/><path d="M134.4,60h9V71.11l-9,0Zm0,17.15h9V88.26l-9,0Z"/><path d="M176.48,44h8.37V74.55h2.67v9.81l-2.85,0,0,7.46h-7.59V84.54h-25v-10Zm.5,13.22-13.5,17.37h13.46Z"/><path d="M195.89,44h24c2.77.38,4.23,2.23,4.4,5.56l0,36.77q.18,5.63-4.46,5.52l-24.09,0q-4.67.34-4.32-5.28l0-36.95Q191.21,44.39,195.89,44Zm7,9.5q-4,0-3.69,2l0,24.85q.54,2.4,3.91,2h10.23q3.12.49,3.23-2.18l0-24.5q.24-2.3-4-2.25Zm5.2,7.2q4.57-.77,3.91,7.53.66,8.53-3.91,7.52-4.45.57-3.9-7.52Q203.77,59.79,208.12,60.66Z"/></svg>
