<svg xmlns="http://www.w3.org/2000/svg" width="288" height="276.15" viewBox="0 0 288 276.15"><defs><style>.cls-1{fill:#f1ecdf;}.cls-2{fill:#fff;}</style></defs><title>Aktiv 1</title><g id="Lag_2" data-name="Lag 2"><g id="Lag_1-2" data-name="Lag 1"><ellipse class="cls-1" cx="144" cy="138.08" rx="144" ry="138.08"/><path class="cls-2" d="M39,224.39c14.39,4.64,70.9,21,133.8-6.06,70.44-30.29,96.76-92.59,101.65-104.82q.93,20.13,1.88,40.27a94.16,94.16,0,0,1-19.81,52.38,123.58,123.58,0,0,1-18.68,23.94,122.05,122.05,0,0,1-41.28,27.15c-16.74,6.58-30.49,7.56-42.74,8.43A185.44,185.44,0,0,1,112.76,264,186.75,186.75,0,0,1,80,251.66,187.67,187.67,0,0,1,39,224.39Z"/><path d="M98.09,74.86H124.7l-1.09,8.79h-9.46v19c-.33,3,.66,4.7,3,5.25L115,116.17a8.87,8.87,0,0,1-6.78-2.61,10,10,0,0,1-2.86-7.21V85.41l3.78-1.82-11.93,0Z"/><path d="M129,74.86h25.26c1.77.21,3,1.36,3.66,3.43l-.06,11.77q-.86,4.08-2.46,5.47a24.54,24.54,0,0,1-5.74,3.21l2.31,3.69a9.79,9.79,0,0,0,7.3,4.66l-.68,9-4.71-.88q-4.6-.93-9.73-9.61l-1.85-3.51-4.6,2.16,0,10.46-8.2.06V107l-3.22-6.89,3.16-2,.06-12.33,4-2.23-6.33,0Zm8.7,8.73V94.87l8.76-3.46q3.19-1.17,3.2-3.78v-4Z"/><path d="M166.41,75l11.14,21.82a16.72,16.72,0,0,0,4.23-8.21,42,42,0,0,0,.63-12.44l8.14.32q-.13,15.53-3.32,21.7a48.19,48.19,0,0,1-7.82,11.07,59,59,0,0,1-11.18,9.07L164.74,110l7.53-6.16L160.06,80.34Z"/><path d="M79.71,143.93l7.21,2.72-.85,2.82h11.6l-1.2,8.67-6.33,0,10,26.92-7.77,2.67L82.11,160.22,70.6,187.52l-7.88-2.4,11.36-27.07-8.29,0,.65-8.55h11Zm3.72,29.88,4.48,4.92-8.29,8.33-4.51-4.87Z"/><path d="M104.82,147.09h30.85l-1.47,8.79H113.14v18.61c-.22,2.65,1.26,3.8,4.42,3.42h10.49l0-6.88-7,0v-8.32l15.67,0V186.7l0,2.29-8.49,1.64v-7l-3.25,3-12.57,0c-2.83-.41-4.87-1.49-6.1-3.23s-1.85-4.27-1.87-7.55V158.46l5.15-2.58-7.67,0Z"/><path d="M155.88,143.93l7.21,2.72-.85,2.82h11.6l-1.2,8.67-6.33,0,10.05,26.92-7.76,2.67-10.32-27.54-11.51,27.3-7.88-2.4,11.37-27.07L142,158l.64-8.55h11Zm3.72,29.88,4.48,4.92-8.29,8.33-4.51-4.87Z"/><path d="M188,146.65l0,40h-8.82l0-38.67Z"/><path d="M191.65,147h8.5l0,6.33,1-2.47a27.38,27.38,0,0,1,8.27,3.36,23.18,23.18,0,0,1,5.55,6.08l.41,1.17,0-14.41h8.43v32.87a6.59,6.59,0,0,1-1.95,4.79c-1.43,1.69-4.38,2.41-8.83,2.18v-8.29q2.93-.24,2.46-3.78a11.71,11.71,0,0,0-.86-4.32c-.6-1.55-2.45-3.62-5.57-6.21a24.73,24.73,0,0,0-8.89-5.06v27.66h-8.53Z"/></g></g></svg>
