<svg id="Lag_1" data-name="Lag 1" xmlns="http://www.w3.org/2000/svg" xmlns:xlink="http://www.w3.org/1999/xlink" width="1000" height="800" viewBox="0 0 1000 800"><defs><style>.cls-1{fill:url(#Ikke-navngivet_forløb_50);}.cls-2{fill:#ffeed3;}.cls-3{fill:#ffe7c9;}.cls-4{fill:#d8a893;stroke:#ffe7c9;opacity:0.73;}.cls-4,.cls-7{stroke-miterlimit:10;}.cls-5{fill:#000021;}.cls-6{fill:#ab0004;}.cls-7{stroke:#fff;}</style><radialGradient id="Ikke-navngivet_forløb_50" cx="500" cy="400" r="452.77" gradientUnits="userSpaceOnUse"><stop offset="0.13" stop-color="#fffcf2"/><stop offset="0.13" stop-color="#fffefb"/><stop offset="0.13" stop-color="#fff"/><stop offset="0.17" stop-color="#fffff8"/><stop offset="0.36" stop-color="#ffffd3"/><stop offset="0.62" stop-color="#ffefff"/><stop offset="1" stop-color="#ff9"/></radialGradient></defs><title>Tegnebræt 17</title><rect class="cls-1" width="1000" height="800"/><path d="M361,50.2,398.13,123q10.15-10.26,14.11-27.39t2.1-41.46l27.15,1.08q-.5,51.75-11.08,72.31a160,160,0,0,1-26.08,36.91,195.74,195.74,0,0,1-37.25,30.23l-11.62-27.54,25.09-20.51L339.83,68.16Z"/><path d="M478.7,49.61V62.4l7.61-12.79h64.46Q562.68,52.93,562,83.2v88q-2.34,10.74-18.26,11.23H469.22Q452.63,183.11,450,168V55.57Zm0,28.81v75.19h54.49V78.42Z"/><path d="M603.5,48.34Q597.93,99.7,602,117.19t12.94,27.63q8.88,10.17,40.23,4.89l-.1-100,28.32,1.66V179.3l-28.32,2.83V166L650,183.69l-6.16,1.37q-27.44.48-41.45-7.72T579.28,144q-9.07-25.09-7.42-72.46l1.66-18.06Z"/><path d="M327.18,289.22l16.41,80.47q11.91-10.06,13.77-20.75T354,318.71H342.71l4.4-28.71,33.69.1,16.6,77.24q7.23-4.48,10.64-16.84t-1.66-32.57H395.84L400.62,290l30.76.1q8.89,49,5,65.13T427,381.11q-5.52,9.76-16.56,19.44l-7.81-5.37,6.54,30.56L381.38,435.9l-12-55q-4,12.69-12.6,19.43l-6.44-3.12,5.47,28.51-26.17,11.62L298.77,296Z"/><path d="M474.25,289.61V302.4l7.62-12.79h64.45q11.92,3.31,11.23,33.59v88q-2.34,10.74-18.26,11.23H464.78q-16.61.69-19.24-14.45V295.57Zm0,28.81v75.19h54.5V318.42Z"/><path d="M567.71,290.2H596l-.1,21.09,3.32-8.2q18.66,5,27.59,11.18t18.51,20.26l1.36,3.91-.09-48.05h28.12V400q.69,7.52-6.49,16T638.8,423.2V395.57q9.76-.78,8.21-12.6a39.06,39.06,0,0,0-2.88-14.41q-3-7.76-18.56-20.7T595.93,331V423.2H567.52Z"/><path d="M689.68,289.9H722.3l-8.79,97.37-23.63-.3Zm.3,106.94h23.53v25.48l-23.63-.09Z"/><path class="cls-2" d="M509.59,853.52l-3.38,0c-36.56-.55-75.89-9.73-107.89-25.2-41.56-20.08-70.86-50.62-84.73-88.3-25.73-69.93,7.71-140.24,44.17-179.2,52.51-56.09,122.53-62.15,150.21-62.15h1.92c23.15.22,102.9,6,157,71.7,2.92,3.54,71.05,87.7,34.36,176.81C686.16,783.91,657.47,812.1,616,831,584.52,845.3,545.73,853.52,509.59,853.52Z"/><path class="cls-3" d="M508,498.15v1h1.93c23.09.22,102.65,6,156.65,71.52,2.91,3.53,70.86,87.47,34.28,176.3a145.31,145.31,0,0,1-35.31,50.89c-13.79,12.92-30.51,23.91-49.7,32.64C584.37,844.82,545.66,853,509.59,853l-3.37,0c-36.49-.55-75.74-9.71-107.69-25.15-19.47-9.41-36.31-21.09-50-34.72a145.45,145.45,0,0,1-34.44-53.3c-25.66-69.72,7.7-139.83,44.07-178.69,52.37-55.95,122.23-62,149.83-62v-1m0,0c-20.89,0-95.35,3.32-150.56,62.31-39.12,41.8-69.14,112.15-44.27,179.72C344.55,825.54,443.94,853.07,506.21,854l3.38,0C571.48,854,668,829.3,701.74,747.36c36.49-88.6-30.1-172.07-34.43-177.32-57.17-69.33-142.4-71.74-157.41-71.88Z"/><path class="cls-4" d="M313.23,710.91c7.92-5.67,21.12-15.22,37.33-27.37,22.29-16.73,45.71-32,67.19-49.77,21-17.36,29.83-26.93,42.3-24.89,2.44.4,4.56,1.17,24.88,14.93,22.83,15.46,24.77,17.61,29.87,17.42,8-.29,9.12-5.82,29.86-19.9,11.87-8.07,17.81-12.1,22.39-12.45,13.84-1,21.14,13.2,44.79,34.84,10,9.12,6.2,4.33,42.31,32.35,11.68,9.07,28.89,22.62,49.77,39.82l-7.47-62.28h0v.07c0,2.48-119.44-94.56-119.44-92.08s-136.87,0-136.87,0L313.23,641.23Z"/><path class="cls-5" d="M300.79,668.61a222.28,222.28,0,0,1,57.92-122.84,196,196,0,0,1,147.36-61.32,202.51,202.51,0,0,1,149.32,59.38A252.39,252.39,0,0,1,714,668.61l12.27,92.07c-3.67-1.14-9.37-2.26-14.93,0-10.73,4.36-12.15,17.75-14.93,17.42-7.68-.91-2.52-103.71-2.49-104.52-9.76-5.25-19.74-11-29.86-17.42a505.59,505.59,0,0,1-93.32-75.89,279,279,0,0,1-57.23,42.3,162.67,162.67,0,0,1-29.86-17.42c-15.24-11.27-30.46-26.83-31.09-26.19a.08.08,0,0,0,0,.06c.4,12.61-114.46,82.12-114.46,82.12-9.31,5.63-16.55,10.28-19.91,12.44l5,102a35.11,35.11,0,0,0-34.84-14.93Q294.58,714.65,300.79,668.61Z"/><path class="cls-5" d="M286.12,479.24l34.11-20.53c13.4-10.8,30.91-12.09,42.64-3.93,9.95,6.92,12.31,18.24,12.85,21.31q4.93,16.65,9.88,33.3a30,30,0,0,1-10.18,41l-34.11,20.53a63.68,63.68,0,0,1-17.92-.82c-10.66-2-21.39-8.35-23.06-9.36a105.57,105.57,0,0,1-28.2-25.1c-2.35-1.8-11.66-9.3-12.84-21.32C257.87,500,268.63,484.82,286.12,479.24Z"/><circle class="cls-6" cx="513.55" cy="667.36" r="12.44"/><path class="cls-7" d="M359.5,737.5c2.15-1.65,4.48-3.33,7-5,3.47-2.31,6.83-4.29,10-6a24.34,24.34,0,0,1,11-3,24.66,24.66,0,0,1,14,4l10,9,3-2-8-11a29.38,29.38,0,0,0-10-6,29.76,29.76,0,0,0-16-1,47.52,47.52,0,0,0-26,14Z"/><path class="cls-7" d="M665.5,736.5c-2.15-1.65-4.48-3.33-7-5-3.47-2.31-6.83-4.29-10-6a24.34,24.34,0,0,0-11-3,24.66,24.66,0,0,0-14,4l-10,9-3-2,8-11a29.38,29.38,0,0,1,10-6,29.76,29.76,0,0,1,16-1,47.52,47.52,0,0,1,26,14Z"/></svg>
